<svg width="16" height="16" viewBox="0 0 16 16" fill="none" xmlns="http://www.w3.org/2000/svg">
<g id="svgexport-6 (24) 1" clip-path="url(#clip0_387_16958)">
<g id="Group">
<path id="Vector" d="M11.7187 7.53133H13.6562V8.46883H11.7187V7.53133ZM10.2965 5.03973L11.6663 3.66992L12.3292 4.33273L10.9593 5.70255L10.2965 5.03973Z" fill="#E2E2EB"/>
<g id="Group_2">
<path id="Vector_2" d="M3.66813 4.33176L4.33094 3.66895L5.70075 5.03876L5.03794 5.70157L3.66813 4.33176ZM2.34375 7.53107H4.28125V8.46857H2.34375V7.53107ZM3.66741 11.6672L5.03722 10.2974L5.70003 10.9602L4.33022 12.33L3.66741 11.6672Z" fill="#F4F4F7"/>
</g>
<path id="Vector_3" d="M10.2958 10.9607L10.9586 10.2979L12.3284 11.6677L11.6656 12.3305L10.2958 10.9607Z" fill="#E2E2EB"/>
<path id="Vector_4" d="M14.5938 9.40625C15.3704 9.40625 16 8.77665 16 8C16 7.22335 15.3704 6.59375 14.5938 6.59375C13.8171 6.59375 13.1875 7.22335 13.1875 8C13.1875 8.77665 13.8171 9.40625 14.5938 9.40625Z" fill="#E62E6B"/>
<path id="Vector_5" d="M12.6625 4.74282C13.0226 4.74282 13.3827 4.60576 13.6568 4.3316C14.2052 3.78329 14.2052 2.89116 13.6568 2.34285C13.1086 1.7946 12.2164 1.79454 11.6681 2.34285C11.1198 2.89116 11.1198 3.78329 11.6681 4.3316C11.9422 4.60579 12.3024 4.74282 12.6625 4.74282Z" fill="#E62E6B"/>
<path id="Vector_6" d="M2.34313 2.34284C1.79481 2.89115 1.79481 3.78328 2.34313 4.33159C2.61725 4.60575 2.97738 4.74281 3.3375 4.74281C3.6976 4.74281 4.05772 4.60575 4.33185 4.33159C4.88016 3.78328 4.88016 2.89115 4.33185 2.34284C3.78353 1.79453 2.89138 1.79462 2.34313 2.34284Z" fill="#FF535F"/>
<path id="Vector_7" d="M1.40625 9.40625C2.1829 9.40625 2.8125 8.77665 2.8125 8C2.8125 7.22335 2.1829 6.59375 1.40625 6.59375C0.6296 6.59375 0 7.22335 0 8C0 8.77665 0.6296 9.40625 1.40625 9.40625Z" fill="#FF535F"/>
<path id="Vector_8" d="M2.34313 11.6681C1.79481 12.2164 1.79481 13.1085 2.34313 13.6568C2.61725 13.931 2.97738 14.0681 3.3375 14.0681C3.6976 14.0681 4.05772 13.931 4.33185 13.6568C4.88016 13.1085 4.88016 12.2164 4.33185 11.6681C3.78356 11.1198 2.89138 11.1198 2.34313 11.6681Z" fill="#FF535F"/>
<path id="Vector_9" d="M11.6681 11.6681C11.1198 12.2164 11.1198 13.1085 11.6681 13.6568C11.9422 13.931 12.3024 14.0681 12.6625 14.0681C13.0226 14.0681 13.3827 13.931 13.6568 13.6568C14.2052 13.1085 14.2052 12.2164 13.6568 11.6681C13.1086 11.1198 12.2164 11.1197 11.6681 11.6681Z" fill="#E62E6B"/>
<path id="Vector_10" d="M7.53125 2.34375V4.28125H8L8.15625 3.5L8 2.34375H7.53125Z" fill="#F4F4F7"/>
<path id="Vector_11" d="M8 2.34375H8.46875V4.28125H8V2.34375Z" fill="#E2E2EB"/>
<path id="Vector_12" d="M7.53125 13.6562H8L8.21875 12.9062L8 11.7188H7.53125V13.6562Z" fill="#F4F4F7"/>
<path id="Vector_13" d="M8 11.7188H8.46875V13.6562H8V11.7188Z" fill="#E2E2EB"/>
<path id="Vector_14" d="M3.90625 8C3.90625 10.2609 5.73909 12.0938 8 12.0938L8.84375 8.0625L8 3.90625C5.73909 3.90625 3.90625 5.73909 3.90625 8Z" fill="#FFE370"/>
<path id="Vector_15" d="M8 3.90625V12.0938C10.2609 12.0938 12.0938 10.2609 12.0938 8C12.0938 5.73909 10.2609 3.90625 8 3.90625Z" fill="#FFB54C"/>
<path id="Vector_16" d="M6.59375 1.40625C6.59375 2.18166 7.22459 2.8125 8 2.8125L8.53125 1.46875L8 0C7.22459 0 6.59375 0.630844 6.59375 1.40625Z" fill="#FF535F"/>
<path id="Vector_17" d="M9.40625 1.40625C9.40625 0.630844 8.77541 0 8 0V2.8125C8.77541 2.8125 9.40625 2.18166 9.40625 1.40625Z" fill="#E62E6B"/>
<path id="Vector_18" d="M6.59375 14.5938C6.59375 15.3692 7.22459 16 8 16L8.34375 14.6875L8 13.1875C7.22459 13.1875 6.59375 13.8183 6.59375 14.5938Z" fill="#FF535F"/>
<path id="Vector_19" d="M8 13.1875V16C8.77541 16 9.40625 15.3692 9.40625 14.5938C9.40625 13.8183 8.77541 13.1875 8 13.1875Z" fill="#FF9378"/>
<path id="Vector_20" d="M7.99419 6.63176C7.57372 6.21129 6.89206 6.21129 6.47159 6.63176C6.05113 7.0522 6.05113 7.73391 6.47159 8.15435L8 9.68279L8.3125 7.90585L8 6.63757L7.99419 6.63176Z" fill="#FF535F"/>
<path id="Vector_21" d="M9.52841 6.63176C9.10794 6.21129 8.42628 6.21129 8.00581 6.63176L8 6.63757V9.68276L9.52841 8.15435C9.94887 7.73391 9.94887 7.05223 9.52841 6.63176Z" fill="#E62E6B"/>
</g>
</g>
<defs>
<clipPath id="clip0_387_16958">
<rect width="16" height="16" fill="white"/>
</clipPath>
</defs>
</svg>
