<svg width="16" height="16" viewBox="0 0 16 16" fill="none" xmlns="http://www.w3.org/2000/svg">
<g id="svgexport-9 (2) 1" clip-path="url(#clip0_387_16940)">
<g id="Group">
<path id="Vector" d="M15.0772 7.53316C14.8868 5.2318 13.2108 3.85156 11.3213 3.85156C9.74947 3.85156 8.64191 4.85289 8 6.00943L7.53116 6.70159V12.1649L8 12.9374L11.9061 13.0207L15.0772 7.53316Z" fill="#F25A3C"/>
<path id="Vector_2" d="M4.67872 3.85156C2.79488 3.85156 1.1138 5.22511 0.92276 7.53316L4.15705 12.8553L8 12.9373V6.00943C7.35809 4.85289 6.25009 3.85156 4.67872 3.85156Z" fill="#66CCFF"/>
<path id="Vector_3" d="M7.99999 10.3457C6.30203 10.3457 4.82077 11.3773 4.15704 12.8548L4.46811 13.3667C5.29614 14.0821 6.25202 14.9025 7.12641 15.6459C7.42806 15.9025 7.71143 16.002 7.99999 15.9998C8.36084 15.9972 8.72991 15.8319 9.15469 15.5745C9.9645 14.8735 10.98 13.9654 11.7838 13.2318L11.906 13.0202C11.2814 11.4558 9.75959 10.3457 7.99999 10.3457Z" fill="#FFDF40"/>
<path id="Vector_4" d="M9.15473 15.5745C9.96454 14.8735 10.9801 13.9654 11.7838 13.2318L11.9061 13.0202C11.2814 11.4558 9.7596 10.3457 8 10.3457V15.9998C8.36085 15.9972 8.72996 15.8319 9.15473 15.5745Z" fill="#FFBE40"/>
<path id="Vector_5" d="M13.1573 8.16045C13.1573 9.1137 12.6229 9.96165 10.6102 11.7903C10.2213 12.1438 10.1862 12.7678 10.5718 13.1524C10.8908 13.4714 11.4182 13.4911 11.7838 13.2323C14.1059 11.1132 15.1119 9.7919 15.1119 7.92603C15.1119 7.79057 15.0881 7.66454 15.0772 7.5332H13.6261C13.3672 7.5332 13.1573 7.74312 13.1573 8.00205V8.16045H13.1573Z" fill="#FFCCB3"/>
<path id="Vector_6" d="M3.7804 3.782C2.7461 3.782 1.90503 2.94092 1.90503 1.90663C1.90503 0.872328 2.7461 0 3.7804 0C4.8147 0 5.65577 0.872328 5.65577 1.90663C5.65577 2.94092 4.8147 3.782 3.7804 3.782Z" fill="#FFE6CC"/>
<path id="Vector_7" d="M12.2196 3.782C11.1853 3.782 10.3442 2.94092 10.3442 1.90663C10.3442 0.872328 11.1853 0 12.2196 0C13.2539 0 14.0949 0.872328 14.0949 1.90663C14.0949 2.94092 13.2539 3.782 12.2196 3.782Z" fill="#FFCCB3"/>
<path id="Vector_8" d="M4.46811 13.3672C4.79764 13.471 5.17841 13.4023 5.42824 13.1524C5.81381 12.7678 5.77868 12.1438 5.38979 11.7903C3.37705 9.96165 2.84276 9.1137 2.84276 8.16045V8.00205C2.84276 7.74312 2.63284 7.5332 2.37391 7.5332H0.922785C0.911908 7.66454 0.888153 7.79057 0.888153 7.92603C0.888153 9.97122 2.27511 11.4728 4.46811 13.3672Z" fill="#FFE6CC"/>
<path id="Vector_9" d="M8 10.3455C9.03574 10.3455 9.87537 9.50583 9.87537 8.4701C9.87537 7.43436 9.03574 6.59473 8 6.59473C6.96427 6.59473 6.12463 7.43436 6.12463 8.4701C6.12463 9.50583 6.96427 10.3455 8 10.3455Z" fill="#FFE6CC"/>
<path id="Vector_10" d="M9.87537 8.4701C9.87537 7.4358 9.0343 6.59473 8 6.59473V10.3455C9.0343 10.3455 9.87537 9.50439 9.87537 8.4701Z" fill="#FFCCB3"/>
</g>
</g>
<defs>
<clipPath id="clip0_387_16940">
<rect width="16" height="16" fill="white"/>
</clipPath>
</defs>
</svg>
