<svg width="16" height="17" viewBox="0 0 16 17" fill="none" xmlns="http://www.w3.org/2000/svg">
<g id="svgexport-21 (6) 2" clip-path="url(#clip0_387_16952)">
<g id="Group">
<path id="Vector" d="M15.9999 5.30299C15.998 5.61795 15.9647 5.93193 15.9005 6.24027C15.7987 6.7339 15.6181 7.22414 15.3585 7.69861C14.6793 8.94018 13.6258 9.93155 12.6071 10.8904C12.4336 11.0529 12.261 11.2162 12.0893 11.3805C11.4573 11.9876 10.8171 12.5728 10.1982 13.1386C9.58374 13.7006 8.94824 14.2814 8.32471 14.8803L7.99999 15.1918L7.6754 14.8803C7.05187 14.2818 6.41637 13.7006 5.80187 13.1388C5.18296 12.5728 4.54283 11.9876 3.91077 11.3805C3.73906 11.2162 3.56648 11.0529 3.39305 10.8904C2.37427 9.93155 1.3208 8.94021 0.641585 7.69861C0.420397 7.29446 0.256335 6.87855 0.149897 6.45902C0.0704284 6.14783 0.0227096 5.83449 0.00645964 5.52174C-0.0429779 4.58255 0.191397 3.6503 0.708116 2.80618C1.85008 0.941676 3.44115 0.540177 4.57493 0.531395C5.54283 0.523958 6.50012 0.80202 7.34424 1.33436L7.99999 1.74515L8.65708 1.33377C9.48937 0.808458 10.4332 0.531395 11.3883 0.531395H11.4252C12.5589 0.540177 14.15 0.941676 15.292 2.80618C15.7684 3.58474 16.0049 4.43824 15.9999 5.30299Z" fill="#FF3636"/>
<path id="Vector_2" d="M15.9999 5.30348C15.998 5.61843 15.9648 5.93242 15.9005 6.24076H9.037L8 9.39001L7.31935 11.4575L4.86266 4.65526L3.98131 6.45944H0.149907C0.0704385 6.14829 0.0227197 5.83494 0.00646973 5.52219H3.39588L4.99269 2.25488L7.27831 8.58457L8 6.3926L8.35875 5.30348H15.9999Z" fill="#F0E7DF"/>
<path id="Vector_3" d="M15.9999 5.30284C15.998 5.6178 15.9647 5.93179 15.9005 6.24012C15.7987 6.73375 15.6182 7.224 15.3585 7.69847C14.6793 8.94003 13.6258 9.93141 12.6071 10.8902C12.4336 11.0527 12.2611 11.2161 12.0893 11.3804C11.4573 11.9874 10.8172 12.5726 10.1982 13.1384C9.58375 13.7004 8.94825 14.2812 8.32472 14.8801L8 15.1917V1.745L8.65709 1.33362C9.48938 0.808313 10.4332 0.53125 11.3883 0.53125H11.4252C12.5589 0.540031 14.15 0.941531 15.292 2.80603C15.7684 3.58459 16.0049 4.43809 15.9999 5.30284Z" fill="#EA0016"/>
<path id="Vector_4" d="M15.9999 5.30277C15.998 5.61772 15.9648 5.93171 15.9005 6.24005H9.037L8 9.3893V6.39186L8.35875 5.30273L15.9999 5.30277Z" fill="#DFCDBD"/>
</g>
</g>
<defs>
<clipPath id="clip0_387_16952">
<rect width="16" height="16" fill="white" transform="translate(0 0.5)"/>
</clipPath>
</defs>
</svg>
