<svg width="18" height="18" viewBox="0 0 18 18" fill="none" xmlns="http://www.w3.org/2000/svg">
<g id="icon / jam-icons / outline &#38; logos / instagram">
<path id="Vector" d="M12.0128 1.5H5.96025C4.77762 1.50139 3.64383 1.97186 2.80765 2.80818C1.97147 3.6445 1.50119 4.77836 1.5 5.961L1.5 12.0135C1.50139 13.1961 1.97186 14.3299 2.80818 15.1661C3.6445 16.0023 4.77836 16.4726 5.961 16.4738H12.0135C13.1961 16.4724 14.3299 16.0019 15.1661 15.1656C16.0023 14.3293 16.4726 13.1954 16.4738 12.0128V5.96025C16.4724 4.77762 16.0019 3.64383 15.1656 2.80765C14.3293 1.97147 13.1954 1.50119 12.0128 1.5V1.5ZM14.9678 12.0128C14.9678 12.4008 14.8913 12.7851 14.7428 13.1436C14.5943 13.5021 14.3766 13.8279 14.1023 14.1023C13.8279 14.3766 13.5021 14.5943 13.1436 14.7428C12.7851 14.8913 12.4008 14.9678 12.0128 14.9678H5.96025C5.17667 14.9676 4.42524 14.6561 3.87123 14.102C3.31723 13.5478 3.006 12.7963 3.006 12.0128V5.96025C3.0062 5.17667 3.31762 4.42524 3.87176 3.87123C4.42591 3.31723 5.17742 3.006 5.961 3.006H12.0135C12.7971 3.0062 13.5485 3.31762 14.1025 3.87176C14.6565 4.42591 14.9678 5.17742 14.9678 5.961V12.0135V12.0128Z" fill="white"/>
<path id="Vector_2" d="M8.98649 5.11426C7.96006 5.11585 6.97614 5.52435 6.25041 6.25021C5.52469 6.97608 5.11638 7.96008 5.11499 8.98651C5.11618 10.0132 5.52451 10.9975 6.25042 11.7236C6.97632 12.4496 7.96055 12.8581 8.98724 12.8595C10.0141 12.8583 10.9985 12.4499 11.7245 11.7238C12.4506 10.9977 12.859 10.0133 12.8602 8.98651C12.8587 7.95982 12.4499 6.97567 11.7238 6.2499C10.9976 5.52414 10.0132 5.116 8.98649 5.11501V5.11426ZM8.98649 11.3535C8.35892 11.3535 7.75706 11.1042 7.3133 10.6604C6.86954 10.2167 6.62024 9.61483 6.62024 8.98726C6.62024 8.35969 6.86954 7.75782 7.3133 7.31407C7.75706 6.87031 8.35892 6.62101 8.98649 6.62101C9.61406 6.62101 10.2159 6.87031 10.6597 7.31407C11.1034 7.75782 11.3527 8.35969 11.3527 8.98726C11.3527 9.61483 11.1034 10.2167 10.6597 10.6604C10.2159 11.1042 9.61406 11.3535 8.98649 11.3535Z" fill="white"/>
<path id="Vector_3" d="M12.867 6.0712C13.3793 6.0712 13.7947 5.65583 13.7947 5.14345C13.7947 4.63107 13.3793 4.2157 12.867 4.2157C12.3546 4.2157 11.9392 4.63107 11.9392 5.14345C11.9392 5.65583 12.3546 6.0712 12.867 6.0712Z" fill="white"/>
</g>
</svg>
