<svg width="16" height="16" viewBox="0 0 16 16" fill="none" xmlns="http://www.w3.org/2000/svg">
<g id="svgexport-6 (29) 1" clip-path="url(#clip0_387_16922)">
<g id="Group">
<path id="Vector" d="M10.3172 6.26929C10.0601 6.06954 9.91593 5.77888 9.92162 5.47173C9.92244 5.42811 9.92188 5.38447 9.91993 5.34088C9.87312 4.28098 9.00597 3.41901 7.94568 3.37851C6.77618 3.33345 5.80922 4.27295 5.80922 5.43335C5.80922 5.44507 5.80931 5.45679 5.8095 5.46851C5.81472 5.77804 5.67056 6.06992 5.41393 6.26935C5.34751 6.32081 5.28438 6.37638 5.2249 6.43573L5.0874 6.57307V9.21054L5.2244 9.34779C5.57846 9.70254 6.04775 9.91482 6.54571 9.94557C6.58885 9.94823 6.63206 9.94956 6.67528 9.94957H6.67531C6.95422 9.94957 7.22497 9.89448 7.47993 9.78588C7.60186 9.73388 7.73305 9.70708 7.86561 9.70708C7.99816 9.70708 8.12935 9.73388 8.25128 9.78588C8.50628 9.89451 8.777 9.94957 9.0559 9.94957C9.09884 9.94957 9.14243 9.94823 9.18543 9.94557C9.68681 9.9146 10.1594 9.69895 10.5163 9.33832C10.873 8.97779 11.0837 8.50298 11.1096 8.00129C11.1442 7.32923 10.848 6.68176 10.3172 6.26929Z" fill="#00CC71"/>
<path id="Vector_2" d="M10.3172 6.26971C10.0601 6.06996 9.91594 5.7793 9.92163 5.47215C9.92245 5.42853 9.92189 5.38489 9.91994 5.3413C9.87313 4.2814 9.00598 3.41943 7.94569 3.37893C7.91885 3.3779 7.89223 3.37793 7.8656 3.37793V9.70752C7.99676 9.70752 8.12791 9.73381 8.25129 9.78634C8.50629 9.89496 8.77701 9.95002 9.05591 9.95002C9.09885 9.95002 9.14244 9.94868 9.18544 9.94602C9.68682 9.91505 10.1594 9.6994 10.5163 9.33877C10.873 8.97824 11.0837 8.50343 11.1096 8.00174C11.1442 7.32965 10.848 6.68218 10.3172 6.26971Z" fill="#009985"/>
<path id="Vector_3" d="M5.69831 6.26929C5.44125 6.06954 5.29706 5.77888 5.30275 5.47173C5.30354 5.42811 5.30298 5.38447 5.30106 5.34088C5.25428 4.28098 4.38709 3.41901 3.32681 3.37851C2.15728 3.33345 1.19034 4.27295 1.19034 5.43335C1.19034 5.44507 1.19043 5.45679 1.19062 5.46851C1.19584 5.77804 1.05168 6.06992 0.79509 6.26935C0.26434 6.68179 -0.0318472 7.32923 0.00277779 8.00126C0.0286215 8.50291 0.239309 8.97773 0.596028 9.33829C0.95284 9.69895 1.42547 9.9146 1.92681 9.94557C1.96984 9.94823 2.01343 9.94957 2.05637 9.94957C2.33531 9.94957 2.60606 9.89448 2.86103 9.78588C2.98296 9.73389 3.11414 9.70709 3.2467 9.70709C3.37925 9.70709 3.51044 9.73389 3.63237 9.78588C3.88737 9.89451 4.15809 9.94957 4.437 9.94957C4.4799 9.94957 4.52353 9.94823 4.56653 9.94557C5.0679 9.9146 5.54053 9.69895 5.89737 9.33832C6.25409 8.97779 6.46478 8.50295 6.49062 8.00132C6.52528 7.32926 6.22909 6.68176 5.69831 6.26929Z" fill="#C7EB4B"/>
<path id="Vector_4" d="M5.69831 6.26971C5.44125 6.06996 5.29706 5.7793 5.30275 5.47215C5.30355 5.42853 5.30298 5.38489 5.30106 5.3413C5.25428 4.2814 4.38709 3.41943 3.32681 3.37893C3.29997 3.3779 3.27334 3.37793 3.24672 3.37793V9.70752C3.37788 9.70752 3.50903 9.73381 3.63241 9.78634C3.88741 9.89496 4.15813 9.95002 4.43703 9.95002C4.47994 9.95002 4.52356 9.94868 4.56656 9.94602C5.06794 9.91505 5.54056 9.6994 5.89741 9.33877C6.25413 8.97824 6.46481 8.5034 6.49066 8.00177C6.52528 7.32968 6.22909 6.68218 5.69831 6.26971Z" fill="#A7D22A"/>
<path id="Vector_5" d="M2.77797 7.16016H3.71547V14.7007H2.77797V7.16016Z" fill="#99503D"/>
<path id="Vector_6" d="M3.24672 7.16016H3.71547V14.7007H3.24672V7.16016Z" fill="#804231"/>
<path id="Vector_7" d="M7.39685 7.16016H8.33435V14.7007H7.39685V7.16016Z" fill="#99503D"/>
<path id="Vector_8" d="M7.8656 7.16016H8.33435V14.7007H7.8656V7.16016Z" fill="#804231"/>
<path id="Vector_9" d="M15.1375 10.4404H10.3396V14.7003H11.2771V12.9061H14.2V14.7003H15.1375V10.4404Z" fill="#DB9F50"/>
<path id="Vector_10" d="M12.7386 10.4404V12.9061H14.2V14.7003H15.1375V10.4404H12.7386Z" fill="#CC9149"/>
<path id="Vector_11" d="M9.47716 12.4375H16V13.375H9.47716V12.4375Z" fill="#99503D"/>
<path id="Vector_12" d="M0 14.2314H16V15.1689H0V14.2314Z" fill="#C7EB4B"/>
<path id="Vector_13" d="M12.7386 4.14258C13.6533 4.14258 14.3948 3.40105 14.3948 2.48633C14.3948 1.57161 13.6533 0.830078 12.7386 0.830078C11.8238 0.830078 11.0823 1.57161 11.0823 2.48633C11.0823 3.40105 11.8238 4.14258 12.7386 4.14258Z" fill="#FFE470"/>
<path id="Vector_14" d="M12.7386 0.830078V4.14258C13.6518 4.14258 14.3948 3.39958 14.3948 2.48633C14.3948 1.57308 13.6518 0.830078 12.7386 0.830078Z" fill="#FFD400"/>
<path id="Vector_15" d="M12.7386 12.4375H16V13.375H12.7386V12.4375Z" fill="#804231"/>
<path id="Vector_16" d="M12.7386 14.2314H16V15.1689H12.7386V14.2314Z" fill="#A7D22A"/>
</g>
</g>
<defs>
<clipPath id="clip0_387_16922">
<rect width="16" height="16" fill="white"/>
</clipPath>
</defs>
</svg>
