<svg width="16" height="16" viewBox="0 0 16 16" fill="none" xmlns="http://www.w3.org/2000/svg">
<g id="icon / jam-icons / outline &#38; logos / linkedin">
<path id="Vector" d="M14.6393 9.14604V14.0654H11.7873V9.47537C11.7873 8.32204 11.3746 7.53537 10.3426 7.53537C9.55459 7.53537 9.08525 8.06604 8.87925 8.57871C8.80392 8.76204 8.78459 9.01737 8.78459 9.27404V14.0654H5.93125C5.93125 14.0654 5.96992 6.29204 5.93125 5.48604H8.78459V6.70204L8.76592 6.73004H8.78459V6.70204C9.16325 6.11871 9.83992 5.28471 11.3553 5.28471C13.2319 5.28471 14.6393 6.51137 14.6393 9.14604ZM2.94725 1.35071C1.97192 1.35071 1.33325 1.99071 1.33325 2.83271C1.33325 3.65604 1.95325 4.31537 2.90992 4.31537H2.92859C3.92392 4.31537 4.54192 3.65604 4.54192 2.83271C4.52459 1.99071 3.92459 1.35071 2.94792 1.35071H2.94725ZM1.50259 14.0654H4.35459V5.48604H1.50259V14.0654Z" fill="white"/>
</g>
</svg>
