<svg width="460" height="166" viewBox="0 0 460 166" fill="none" xmlns="http://www.w3.org/2000/svg">
<g clip-path="url(#clip0_697_86851)">
<path d="M452.462 111.342L450.626 104.045V111.952C450.626 112.389 450.529 112.717 450.333 112.936C450.138 113.154 449.88 113.264 449.556 113.264C449.244 113.264 448.989 113.156 448.79 112.94C448.593 112.724 448.493 112.394 448.493 111.952V102.889C448.493 102.389 448.624 102.052 448.884 101.877C449.145 101.704 449.496 101.616 449.938 101.616H450.657C451.09 101.616 451.404 101.654 451.6 101.733C451.794 101.812 451.938 101.952 452.033 102.154C452.126 102.358 452.233 102.689 452.353 103.148L454.017 109.421L455.681 103.148C455.801 102.689 455.908 102.358 456.001 102.154C456.096 101.952 456.24 101.812 456.434 101.733C456.63 101.654 456.944 101.616 457.377 101.616H458.096C458.538 101.616 458.889 101.704 459.15 101.877C459.41 102.052 459.541 102.389 459.541 102.889V111.952C459.541 112.389 459.442 112.717 459.248 112.936C459.052 113.154 458.79 113.264 458.462 113.264C458.156 113.264 457.902 113.154 457.705 112.936C457.506 112.717 457.408 112.389 457.408 111.952V104.045L455.572 111.342C455.452 111.816 455.354 112.164 455.278 112.385C455.204 112.606 455.064 112.809 454.861 112.99C454.657 113.173 454.377 113.264 454.017 113.264C453.746 113.264 453.517 113.205 453.329 113.089C453.142 112.972 452.996 112.821 452.892 112.64C452.788 112.457 452.706 112.256 452.646 112.034C452.586 111.813 452.525 111.582 452.462 111.342Z" fill="#68257B"/>
<path d="M233.189 103.596L221.658 60.8308L209.981 103.596C209.073 106.84 208.351 109.167 207.817 110.577C207.281 111.988 206.349 113.253 205.018 114.372C203.689 115.492 201.921 116.051 199.715 116.051C197.931 116.051 196.463 115.719 195.313 115.053C194.161 114.389 193.227 113.448 192.515 112.232C191.801 111.015 191.217 109.572 190.763 107.901C190.309 106.232 189.903 104.683 189.547 103.255L177.675 55.2348C176.962 52.4454 176.605 50.3214 176.605 48.8615C176.605 47.0121 177.254 45.4561 178.551 44.1908C179.849 42.9254 181.454 42.2921 183.367 42.2921C185.995 42.2921 187.762 43.1361 188.671 44.8228C189.578 46.5108 190.374 48.9574 191.055 52.1708L200.397 93.8161L210.857 54.8454C211.635 51.8615 212.333 49.5908 212.949 48.0334C213.565 46.4774 214.57 45.1308 215.966 43.9961C217.359 42.8601 219.257 42.2921 221.658 42.2921C224.09 42.2921 225.979 42.8854 227.326 44.0681C228.671 45.2534 229.605 46.5428 230.123 47.9374C230.642 49.3321 231.339 51.6334 232.215 54.8454L242.773 93.8161L252.114 52.1708C252.569 49.9974 252.997 48.2934 253.403 47.0614C253.809 45.8294 254.506 44.7268 255.495 43.7521C256.486 42.7801 257.921 42.2921 259.802 42.2921C261.682 42.2921 263.279 42.9174 264.594 44.1668C265.907 45.4148 266.565 46.9801 266.565 48.8615C266.565 50.1908 266.207 52.3161 265.494 55.2348L253.622 103.255C252.811 106.499 252.139 108.875 251.605 110.383C251.069 111.892 250.161 113.213 248.879 114.348C247.598 115.483 245.79 116.051 243.454 116.051C241.247 116.051 239.481 115.5 238.151 114.397C236.821 113.293 235.895 112.055 235.378 110.676C234.859 109.296 234.129 106.937 233.189 103.596Z" fill="#68257B"/>
<path d="M305.439 89.3414C303.493 90.0548 300.663 90.8094 296.949 91.6028C293.235 92.3988 290.664 92.9814 289.237 93.3548C287.809 93.7281 286.448 94.4588 285.151 95.5441C283.853 96.6321 283.204 98.1468 283.204 100.093C283.204 102.104 283.967 103.815 285.491 105.227C287.016 106.637 289.011 107.343 291.475 107.343C294.103 107.343 296.527 106.767 298.748 105.615C300.969 104.465 302.6 102.98 303.639 101.164C304.839 99.1521 305.439 95.8441 305.439 91.2388V89.3414ZM306.315 108.559C303.104 111.057 299.997 112.929 296.997 114.179C293.997 115.425 290.632 116.051 286.903 116.051C283.496 116.051 280.504 115.377 277.925 114.033C275.348 112.687 273.359 110.863 271.967 108.559C270.571 106.257 269.873 103.759 269.873 101.067C269.873 97.4334 271.024 94.3361 273.328 91.7734C275.631 89.2108 278.793 87.4921 282.815 86.6161C283.659 86.4228 285.749 85.9841 289.091 85.3028C292.432 84.6214 295.295 83.9974 297.679 83.4294C300.063 82.8628 302.648 82.1734 305.439 81.3628C305.276 77.8588 304.571 75.2894 303.323 73.6494C302.075 72.0134 299.487 71.1935 295.563 71.1935C292.188 71.1935 289.651 71.6641 287.948 72.6041C286.244 73.5454 284.785 74.9561 283.569 76.8374C282.353 78.7188 281.493 79.9601 280.991 80.5588C280.487 81.1588 279.411 81.4601 277.755 81.4601C276.263 81.4601 274.973 80.9801 273.888 80.0241C272.8 79.0681 272.257 77.8428 272.257 76.3508C272.257 74.0161 273.084 71.7454 274.74 69.5388C276.393 67.3334 278.971 65.5174 282.475 64.0908C285.977 62.6628 290.34 61.9494 295.563 61.9494C301.401 61.9494 305.989 62.6401 309.331 64.0174C312.672 65.3961 315.031 67.5774 316.411 70.5614C317.789 73.5454 318.477 77.5028 318.477 82.4321C318.477 85.5454 318.469 88.1908 318.453 90.3628C318.437 92.5361 318.412 94.9534 318.38 97.6121C318.38 100.109 318.795 102.712 319.621 105.421C320.448 108.129 320.861 109.872 320.861 110.651C320.861 112.013 320.221 113.255 318.94 114.372C317.659 115.492 316.207 116.051 314.585 116.051C313.224 116.051 311.877 115.411 310.548 114.129C309.217 112.849 307.805 110.991 306.315 108.559Z" fill="#68257B"/>
<path d="M330.883 63.2135H334.045V59.2241C334.045 55.0735 334.573 51.7735 335.628 49.3241C336.681 46.8748 338.465 45.0908 340.979 43.9708C343.492 42.8521 346.939 42.2935 351.317 42.2935C359.069 42.2935 362.945 44.1908 362.945 47.9855C362.945 49.2188 362.54 50.2721 361.729 51.1481C360.917 52.0228 359.961 52.4628 358.859 52.4628C358.34 52.4628 357.448 52.3641 356.184 52.1708C354.917 51.9748 353.848 51.8775 352.971 51.8775C350.572 51.8775 349.031 52.5828 348.351 53.9948C347.669 55.4055 347.328 57.4241 347.328 60.0521V63.2135H350.588C355.648 63.2135 358.179 64.7401 358.179 67.7881C358.179 69.9615 357.504 71.3401 356.159 71.9228C354.812 72.5068 352.956 72.7975 350.588 72.7975H347.328V107.975C347.328 110.601 346.703 112.605 345.455 113.983C344.205 115.361 342.592 116.051 340.615 116.051C338.733 116.051 337.167 115.361 335.919 113.983C334.671 112.605 334.045 110.601 334.045 107.975V72.7975H330.397C328.417 72.7975 326.895 72.3521 325.823 71.4615C324.752 70.5695 324.217 69.4095 324.217 67.9815C324.217 64.8028 326.439 63.2135 330.883 63.2135Z" fill="#68257B"/>
<path d="M367.762 63.2135H370.924V59.2241C370.924 55.0735 371.452 51.7735 372.507 49.3241C373.56 46.8748 375.344 45.0908 377.858 43.9708C380.371 42.8521 383.818 42.2935 388.196 42.2935C395.948 42.2935 399.824 44.1908 399.824 47.9855C399.824 49.2188 399.419 50.2721 398.608 51.1481C397.796 52.0228 396.84 52.4628 395.738 52.4628C395.219 52.4628 394.327 52.3641 393.063 52.1708C391.796 51.9748 390.727 51.8775 389.85 51.8775C387.451 51.8775 385.91 52.5828 385.23 53.9948C384.548 55.4055 384.207 57.4241 384.207 60.0521V63.2135H387.467C392.527 63.2135 395.058 64.7401 395.058 67.7881C395.058 69.9615 394.383 71.3401 393.038 71.9228C391.691 72.5068 389.835 72.7975 387.467 72.7975H384.207V107.975C384.207 110.601 383.582 112.605 382.334 113.983C381.084 115.361 379.471 116.051 377.494 116.051C375.612 116.051 374.046 115.361 372.798 113.983C371.55 112.605 370.924 110.601 370.924 107.975V72.7975H367.276C365.296 72.7975 363.774 72.3521 362.702 71.4615C361.631 70.5695 361.096 69.4095 361.096 67.9815C361.096 64.8028 363.318 63.2135 367.762 63.2135Z" fill="#68257B"/>
<path d="M415.201 96.8814V107.975C415.201 110.668 414.567 112.687 413.302 114.032C412.038 115.377 410.433 116.051 408.486 116.051C406.571 116.051 404.999 115.369 403.767 114.008C402.534 112.645 401.918 110.635 401.918 107.975V70.9988C401.918 65.0308 404.074 62.0468 408.389 62.0468C410.594 62.0468 412.183 62.7441 413.157 64.1374C414.13 65.5334 414.666 67.5921 414.762 70.3174C416.351 67.5921 417.981 65.5334 419.653 64.1374C421.322 62.7441 423.553 62.0468 426.341 62.0468C429.13 62.0468 431.839 62.7441 434.466 64.1374C437.094 65.5334 438.407 67.3828 438.407 69.6854C438.407 71.3068 437.847 72.6454 436.729 73.6988C435.61 74.7534 434.401 75.2801 433.105 75.2801C432.618 75.2801 431.442 74.9801 429.577 74.3801C427.711 73.7801 426.065 73.4801 424.638 73.4801C422.693 73.4801 421.103 73.9908 419.871 75.0134C418.638 76.0334 417.681 77.5508 417.001 79.5614C416.319 81.5734 415.849 83.9641 415.59 86.7388C415.33 89.5121 415.201 92.8921 415.201 96.8814Z" fill="#68257B"/>
<path d="M199.065 136.535C199.016 136.038 198.805 135.652 198.431 135.378C198.058 135.103 197.551 134.965 196.911 134.965C196.476 134.965 196.109 135.027 195.809 135.15C195.509 135.269 195.28 135.435 195.12 135.648C194.964 135.862 194.886 136.104 194.886 136.375C194.877 136.6 194.925 136.797 195.027 136.966C195.134 137.134 195.28 137.28 195.464 137.403C195.649 137.522 195.862 137.626 196.104 137.717C196.347 137.803 196.605 137.877 196.88 137.938L198.013 138.209C198.563 138.332 199.067 138.496 199.527 138.702C199.986 138.907 200.385 139.159 200.721 139.459C201.058 139.758 201.318 140.111 201.503 140.517C201.692 140.924 201.788 141.389 201.792 141.915C201.788 142.686 201.591 143.355 201.201 143.921C200.815 144.484 200.257 144.921 199.527 145.232C198.801 145.54 197.924 145.694 196.898 145.694C195.881 145.694 194.994 145.538 194.239 145.226C193.488 144.914 192.902 144.453 192.479 143.841C192.06 143.226 191.841 142.465 191.82 141.558H194.399C194.428 141.98 194.549 142.333 194.763 142.616C194.98 142.895 195.269 143.107 195.63 143.25C195.996 143.39 196.408 143.46 196.868 143.46C197.319 143.46 197.711 143.394 198.043 143.263C198.38 143.131 198.64 142.949 198.825 142.715C199.01 142.481 199.102 142.212 199.102 141.909C199.102 141.625 199.018 141.387 198.85 141.194C198.686 141.002 198.444 140.837 198.123 140.702C197.807 140.567 197.42 140.444 196.96 140.333L195.587 139.988C194.525 139.729 193.685 139.325 193.07 138.775C192.454 138.225 192.149 137.485 192.153 136.553C192.149 135.79 192.352 135.123 192.762 134.553C193.176 133.982 193.745 133.537 194.467 133.217C195.189 132.897 196.01 132.737 196.929 132.737C197.865 132.737 198.682 132.897 199.379 133.217C200.081 133.537 200.627 133.982 201.016 134.553C201.406 135.123 201.607 135.784 201.62 136.535H199.065ZM206.232 145.694C205.628 145.694 205.091 145.589 204.619 145.38C204.147 145.167 203.774 144.853 203.499 144.438C203.228 144.02 203.092 143.499 203.092 142.875C203.092 142.35 203.189 141.909 203.382 141.551C203.575 141.194 203.837 140.907 204.17 140.69C204.502 140.472 204.88 140.308 205.302 140.197C205.729 140.086 206.176 140.009 206.644 139.963C207.194 139.906 207.637 139.853 207.974 139.803C208.31 139.75 208.554 139.672 208.706 139.569C208.858 139.467 208.934 139.315 208.934 139.114V139.077C208.934 138.687 208.811 138.386 208.565 138.172C208.323 137.959 207.978 137.852 207.531 137.852C207.059 137.852 206.683 137.957 206.404 138.166C206.125 138.371 205.94 138.63 205.85 138.942L203.425 138.745C203.548 138.17 203.79 137.674 204.151 137.255C204.512 136.832 204.978 136.508 205.548 136.282C206.123 136.053 206.788 135.938 207.543 135.938C208.068 135.938 208.571 135.999 209.051 136.122C209.535 136.245 209.964 136.436 210.337 136.695C210.715 136.953 211.012 137.286 211.23 137.692C211.447 138.094 211.556 138.576 211.556 139.139V145.516H209.069V144.205H208.996C208.844 144.5 208.641 144.761 208.386 144.986C208.132 145.208 207.826 145.382 207.469 145.509C207.112 145.633 206.7 145.694 206.232 145.694ZM206.983 143.884C207.368 143.884 207.709 143.809 208.004 143.657C208.3 143.501 208.532 143.291 208.7 143.029C208.868 142.766 208.952 142.469 208.952 142.136V141.133C208.87 141.186 208.758 141.236 208.614 141.281C208.474 141.322 208.316 141.361 208.14 141.398C207.963 141.43 207.787 141.461 207.611 141.49C207.434 141.515 207.274 141.537 207.13 141.558C206.823 141.603 206.554 141.675 206.324 141.773C206.094 141.872 205.916 142.005 205.789 142.173C205.661 142.337 205.598 142.543 205.598 142.789C205.598 143.146 205.727 143.419 205.986 143.607C206.248 143.792 206.581 143.884 206.983 143.884ZM222.067 136.061L218.761 145.516H215.807L212.501 136.061H215.271L217.235 142.826H217.333L219.291 136.061H222.067ZM227.413 145.7C226.44 145.7 225.603 145.503 224.901 145.109C224.204 144.711 223.666 144.149 223.289 143.423C222.911 142.692 222.722 141.828 222.722 140.831C222.722 139.859 222.911 139.005 223.289 138.271C223.666 137.536 224.198 136.964 224.883 136.553C225.572 136.143 226.381 135.938 227.308 135.938C227.932 135.938 228.512 136.038 229.05 136.239C229.592 136.436 230.064 136.734 230.466 137.132C230.872 137.53 231.188 138.031 231.414 138.634C231.639 139.233 231.752 139.935 231.752 140.739V141.459H223.769V139.834H229.284C229.284 139.457 229.202 139.122 229.038 138.831C228.874 138.539 228.646 138.312 228.355 138.148C228.067 137.979 227.733 137.895 227.351 137.895C226.953 137.895 226.6 137.987 226.292 138.172C225.989 138.353 225.751 138.597 225.578 138.905C225.406 139.208 225.318 139.547 225.314 139.92V141.465C225.314 141.933 225.4 142.337 225.572 142.678C225.749 143.019 225.997 143.281 226.317 143.466C226.637 143.651 227.017 143.743 227.456 143.743C227.747 143.743 228.014 143.702 228.256 143.62C228.498 143.538 228.705 143.415 228.878 143.25C229.05 143.086 229.181 142.885 229.272 142.647L231.697 142.807C231.574 143.39 231.321 143.899 230.94 144.334C230.562 144.765 230.074 145.101 229.475 145.343C228.88 145.581 228.192 145.7 227.413 145.7ZM237.044 135.107V132.909H247.398V135.107H243.539V145.516H240.904V135.107H237.044ZM249.054 145.516V136.061H251.676V145.516H249.054ZM250.371 134.842C249.981 134.842 249.647 134.713 249.368 134.454C249.093 134.192 248.955 133.878 248.955 133.512C248.955 133.151 249.093 132.841 249.368 132.583C249.647 132.32 249.981 132.189 250.371 132.189C250.761 132.189 251.093 132.32 251.368 132.583C251.647 132.841 251.787 133.151 251.787 133.512C251.787 133.878 251.647 134.192 251.368 134.454C251.093 134.713 250.761 134.842 250.371 134.842ZM253.777 145.516V136.061H256.276V137.729H256.387C256.584 137.175 256.912 136.738 257.371 136.418C257.831 136.098 258.381 135.938 259.021 135.938C259.669 135.938 260.221 136.1 260.677 136.424C261.132 136.744 261.436 137.179 261.588 137.729H261.686C261.879 137.187 262.228 136.754 262.733 136.43C263.242 136.102 263.843 135.938 264.536 135.938C265.419 135.938 266.135 136.219 266.685 136.781C267.239 137.339 267.516 138.131 267.516 139.157V145.516H264.9V139.674C264.9 139.149 264.76 138.755 264.481 138.492C264.202 138.23 263.853 138.098 263.435 138.098C262.959 138.098 262.587 138.25 262.32 138.554C262.054 138.853 261.92 139.249 261.92 139.742V145.516H259.378V139.619C259.378 139.155 259.245 138.786 258.978 138.511C258.715 138.236 258.369 138.098 257.938 138.098C257.646 138.098 257.384 138.172 257.15 138.32C256.92 138.464 256.737 138.667 256.602 138.929C256.467 139.188 256.399 139.491 256.399 139.84V145.516H253.777ZM273.896 145.7C272.923 145.7 272.086 145.503 271.384 145.109C270.687 144.711 270.149 144.149 269.772 143.423C269.394 142.692 269.205 141.828 269.205 140.831C269.205 139.859 269.394 139.005 269.772 138.271C270.149 137.536 270.681 136.964 271.366 136.553C272.055 136.143 272.864 135.938 273.791 135.938C274.415 135.938 274.996 136.038 275.533 136.239C276.075 136.436 276.547 136.734 276.949 137.132C277.355 137.53 277.671 138.031 277.897 138.634C278.123 139.233 278.235 139.935 278.235 140.739V141.459H270.252V139.834H275.767C275.767 139.457 275.685 139.122 275.521 138.831C275.357 138.539 275.129 138.312 274.838 138.148C274.55 137.979 274.216 137.895 273.834 137.895C273.436 137.895 273.083 137.987 272.776 138.172C272.472 138.353 272.234 138.597 272.061 138.905C271.889 139.208 271.801 139.547 271.797 139.92V141.465C271.797 141.933 271.883 142.337 272.055 142.678C272.232 143.019 272.48 143.281 272.8 143.466C273.12 143.651 273.5 143.743 273.939 143.743C274.23 143.743 274.497 143.702 274.739 143.62C274.981 143.538 275.188 143.415 275.361 143.25C275.533 143.086 275.664 142.885 275.755 142.647L278.18 142.807C278.057 143.39 277.805 143.899 277.423 144.334C277.045 144.765 276.557 145.101 275.958 145.343C275.363 145.581 274.675 145.7 273.896 145.7ZM281.479 145.676C281.073 145.676 280.724 145.532 280.433 145.245C280.146 144.953 280.002 144.605 280.002 144.198C280.002 143.796 280.146 143.451 280.433 143.164C280.724 142.877 281.073 142.733 281.479 142.733C281.873 142.733 282.218 142.877 282.513 143.164C282.809 143.451 282.957 143.796 282.957 144.198C282.957 144.469 282.887 144.717 282.747 144.943C282.612 145.165 282.433 145.343 282.212 145.479C281.99 145.61 281.746 145.676 281.479 145.676ZM285.159 145.516V132.909H293.653V135.107H287.824V138.111H293.216V140.308H287.824V143.318H293.678V145.516H285.159ZM300.808 136.061V138.031H294.972V136.061H300.808ZM296.308 145.516V135.378C296.308 134.692 296.441 134.124 296.708 133.672C296.979 133.221 297.348 132.883 297.816 132.657C298.284 132.431 298.815 132.318 299.41 132.318C299.812 132.318 300.18 132.349 300.512 132.411C300.849 132.472 301.099 132.528 301.263 132.577L300.795 134.547C300.693 134.514 300.565 134.483 300.414 134.454C300.266 134.426 300.114 134.411 299.958 134.411C299.572 134.411 299.304 134.501 299.152 134.682C299 134.858 298.924 135.107 298.924 135.427V145.516H296.308ZM307.494 136.061V138.031H301.659V136.061H307.494ZM302.994 145.516V135.378C302.994 134.692 303.128 134.124 303.394 133.672C303.665 133.221 304.035 132.883 304.502 132.657C304.97 132.431 305.502 132.318 306.097 132.318C306.499 132.318 306.866 132.349 307.198 132.411C307.535 132.472 307.785 132.528 307.949 132.577L307.482 134.547C307.379 134.514 307.252 134.483 307.1 134.454C306.952 134.426 306.8 134.411 306.644 134.411C306.259 134.411 305.99 134.501 305.838 134.682C305.686 134.858 305.61 135.107 305.61 135.427V145.516H302.994ZM313.029 145.7C312.073 145.7 311.246 145.497 310.549 145.091C309.855 144.681 309.32 144.11 308.942 143.38C308.564 142.645 308.376 141.794 308.376 140.825C308.376 139.848 308.564 138.995 308.942 138.264C309.32 137.53 309.855 136.96 310.549 136.553C311.246 136.143 312.073 135.938 313.029 135.938C313.985 135.938 314.81 136.143 315.504 136.553C316.201 136.96 316.739 137.53 317.116 138.264C317.494 138.995 317.683 139.848 317.683 140.825C317.683 141.794 317.494 142.645 317.116 143.38C316.739 144.11 316.201 144.681 315.504 145.091C314.81 145.497 313.985 145.7 313.029 145.7ZM313.042 143.669C313.477 143.669 313.84 143.546 314.131 143.3C314.422 143.049 314.642 142.709 314.79 142.278C314.942 141.847 315.017 141.357 315.017 140.807C315.017 140.257 314.942 139.766 314.79 139.336C314.642 138.905 314.422 138.564 314.131 138.314C313.84 138.063 313.477 137.938 313.042 137.938C312.602 137.938 312.233 138.063 311.934 138.314C311.638 138.564 311.414 138.905 311.263 139.336C311.115 139.766 311.041 140.257 311.041 140.807C311.041 141.357 311.115 141.847 311.263 142.278C311.414 142.709 311.638 143.049 311.934 143.3C312.233 143.546 312.602 143.669 313.042 143.669ZM319.388 145.516V136.061H321.93V137.71H322.029C322.201 137.124 322.49 136.68 322.896 136.381C323.303 136.077 323.771 135.925 324.3 135.925C324.431 135.925 324.573 135.934 324.725 135.95C324.876 135.966 325.01 135.989 325.125 136.018V138.344C325.002 138.308 324.831 138.275 324.614 138.246C324.396 138.217 324.197 138.203 324.017 138.203C323.631 138.203 323.286 138.287 322.983 138.455C322.683 138.619 322.445 138.849 322.269 139.145C322.096 139.44 322.01 139.781 322.01 140.167V145.516H319.388ZM331.983 136.061V138.031H326.29V136.061H331.983ZM327.582 133.796H330.205V142.61C330.205 142.852 330.241 143.041 330.315 143.177C330.389 143.308 330.492 143.4 330.623 143.454C330.759 143.507 330.914 143.534 331.091 143.534C331.214 143.534 331.337 143.523 331.46 143.503C331.583 143.478 331.678 143.46 331.743 143.447L332.156 145.399C332.025 145.44 331.84 145.487 331.602 145.54C331.364 145.598 331.075 145.633 330.734 145.645C330.102 145.67 329.548 145.585 329.072 145.393C328.6 145.2 328.233 144.9 327.97 144.494C327.707 144.088 327.578 143.575 327.582 142.955V133.796ZM335.224 145.676C334.818 145.676 334.469 145.532 334.178 145.245C333.891 144.953 333.747 144.605 333.747 144.198C333.747 143.796 333.891 143.451 334.178 143.164C334.469 142.877 334.818 142.733 335.224 142.733C335.618 142.733 335.963 142.877 336.258 143.164C336.554 143.451 336.702 143.796 336.702 144.198C336.702 144.469 336.632 144.717 336.492 144.943C336.357 145.165 336.178 145.343 335.957 145.479C335.735 145.61 335.491 145.676 335.224 145.676ZM338.904 132.909H342.191L345.662 141.379H345.81L349.282 132.909H352.569V145.516H349.984V137.31H349.879L346.617 145.454H344.856L341.594 137.28H341.489V145.516H338.904V132.909ZM358.988 145.7C358.031 145.7 357.205 145.497 356.507 145.091C355.813 144.681 355.278 144.11 354.9 143.38C354.523 142.645 354.334 141.794 354.334 140.825C354.334 139.848 354.523 138.995 354.9 138.264C355.278 137.53 355.813 136.96 356.507 136.553C357.205 136.143 358.031 135.938 358.988 135.938C359.944 135.938 360.769 136.143 361.462 136.553C362.16 136.96 362.697 137.53 363.075 138.264C363.452 138.995 363.641 139.848 363.641 140.825C363.641 141.794 363.452 142.645 363.075 143.38C362.697 144.11 362.16 144.681 361.462 145.091C360.769 145.497 359.944 145.7 358.988 145.7ZM359 143.669C359.435 143.669 359.798 143.546 360.089 143.3C360.381 143.049 360.6 142.709 360.748 142.278C360.9 141.847 360.976 141.357 360.976 140.807C360.976 140.257 360.9 139.766 360.748 139.336C360.6 138.905 360.381 138.564 360.089 138.314C359.798 138.063 359.435 137.938 359 137.938C358.561 137.938 358.191 138.063 357.892 138.314C357.596 138.564 357.373 138.905 357.221 139.336C357.073 139.766 356.999 140.257 356.999 140.807C356.999 141.357 357.073 141.847 357.221 142.278C357.373 142.709 357.596 143.049 357.892 143.3C358.191 143.546 358.561 143.669 359 143.669ZM367.968 140.05V145.516H365.346V136.061H367.845V137.729H367.956C368.165 137.179 368.516 136.744 369.009 136.424C369.501 136.1 370.098 135.938 370.8 135.938C371.457 135.938 372.029 136.081 372.517 136.369C373.006 136.656 373.385 137.066 373.656 137.6C373.927 138.129 374.062 138.761 374.062 139.496V145.516H371.44V139.963C371.444 139.385 371.296 138.933 370.997 138.609C370.697 138.281 370.285 138.117 369.76 138.117C369.407 138.117 369.095 138.193 368.824 138.344C368.557 138.496 368.348 138.718 368.196 139.009C368.048 139.297 367.973 139.643 367.968 140.05ZM380.438 145.7C379.465 145.7 378.628 145.503 377.926 145.109C377.229 144.711 376.691 144.149 376.314 143.423C375.936 142.692 375.747 141.828 375.747 140.831C375.747 139.859 375.936 139.005 376.314 138.271C376.691 137.536 377.223 136.964 377.908 136.553C378.597 136.143 379.406 135.938 380.333 135.938C380.957 135.938 381.538 136.038 382.075 136.239C382.617 136.436 383.089 136.734 383.491 137.132C383.897 137.53 384.213 138.031 384.439 138.634C384.665 139.233 384.777 139.935 384.777 140.739V141.459H376.794V139.834H382.309C382.309 139.457 382.227 139.122 382.063 138.831C381.899 138.539 381.671 138.312 381.38 138.148C381.092 137.979 380.758 137.895 380.376 137.895C379.978 137.895 379.625 137.987 379.318 138.172C379.014 138.353 378.776 138.597 378.604 138.905C378.431 139.208 378.343 139.547 378.339 139.92V141.465C378.339 141.933 378.425 142.337 378.597 142.678C378.774 143.019 379.022 143.281 379.342 143.466C379.662 143.651 380.042 143.743 380.481 143.743C380.772 143.743 381.039 143.702 381.281 143.62C381.523 143.538 381.731 143.415 381.903 143.25C382.075 143.086 382.207 142.885 382.297 142.647L384.722 142.807C384.599 143.39 384.347 143.899 383.965 144.334C383.587 144.765 383.099 145.101 382.5 145.343C381.905 145.581 381.218 145.7 380.438 145.7ZM387.854 149.061C387.521 149.061 387.209 149.035 386.918 148.981C386.631 148.932 386.393 148.868 386.204 148.79L386.795 146.833C387.103 146.927 387.38 146.979 387.626 146.987C387.876 146.995 388.092 146.938 388.272 146.814C388.457 146.691 388.607 146.482 388.722 146.187L388.875 145.786L385.484 136.061H388.241L390.199 143.004H390.297L392.273 136.061H395.049L391.375 146.537C391.198 147.046 390.958 147.489 390.654 147.867C390.355 148.249 389.975 148.542 389.516 148.747C389.056 148.957 388.502 149.061 387.854 149.061Z" fill="#68257B"/>
<path d="M165.949 83.4296C165.949 128.988 129.017 165.919 83.4599 165.919C37.9025 165.919 0.97052 128.988 0.97052 83.4296C0.97052 37.8723 37.9025 0.94162 83.4599 0.94162C129.017 0.94162 165.949 37.8723 165.949 83.4296Z" fill="#68257B"/>
<path d="M116.059 70.8605L113.777 78.3565C106.607 67.9285 112.311 46.0912 119.48 43.9725C125.021 42.1792 121.111 53.2619 116.059 70.8605ZM86.0918 56.3099C90.7825 55.0845 86.7705 64.6685 81.3545 79.9685L78.9398 86.4765C73.7812 76.7365 80.0372 57.7179 86.0918 56.3099ZM145.555 71.5125C142.947 76.4005 137.244 80.8019 131.051 82.7565C133.169 78.8445 134.799 74.7725 136.103 70.8605C142.295 50.6539 133.984 34.5205 121.273 38.4325C104.162 43.6472 98.6212 73.6312 111.496 84.7125C105.467 101.823 97.6438 117.63 89.1692 117.63C85.2212 117.63 79.6372 109.989 80.9345 107.262C81.1065 107.094 81.2892 106.938 81.4585 106.767C81.5918 106.633 81.7212 106.498 81.8532 106.362C81.8572 106.359 81.8612 106.358 81.8638 106.355C81.8638 106.354 81.8638 106.353 81.8638 106.351C86.4812 101.613 89.9158 96.3885 90.5105 95.4192C91.9985 93.0032 92.7558 91.7565 92.8492 91.5285C94.8732 88.1939 96.5065 84.6832 97.8598 81.2952C104.401 63.7552 98.7105 48.8739 87.9638 51.5059C73.5025 55.0059 66.7985 81.2752 76.6078 91.9699C75.2238 95.9752 73.1372 100.853 69.9438 106.031C68.9172 107.694 67.8158 109.303 66.6985 110.903C65.5585 112.535 64.1225 114.027 62.8425 115.558C62.7998 115.61 62.7598 115.665 62.7198 115.719C60.4332 116.937 58.3332 117.63 56.5785 117.63C50.3852 117.63 53.4812 105.245 67.9852 69.0672C75.9705 49.1872 68.4745 34.3579 54.4598 37.4539C54.2958 37.4539 56.0892 48.8605 47.7785 69.0672C47.0825 70.7819 46.4478 72.4405 45.8465 74.0672C38.0038 89.3205 33.8518 97.8779 22.4305 105.839C21.5052 106.461 26.5092 124.639 33.3758 119.369C36.1665 117.222 38.4518 114.385 40.4092 111.053C42.2772 118.301 46.9025 121.867 52.9932 121.867C57.5585 121.867 62.5185 120.171 67.4132 117.199C68.8825 116.382 70.3212 115.513 71.7252 114.59C74.8185 119.025 79.3332 121.867 85.5852 121.867C99.2732 121.867 117.525 105.571 128.607 87.3205C136.753 84.8752 144.413 79.1712 147.02 74.9352C148.976 71.6752 149.303 69.2299 149.303 68.4165C149.303 65.3205 148.488 65.8085 145.555 71.5125Z" fill="#EED24C"/>
<path d="M91.263 44.6182C96.9404 44.6182 101.542 40.0168 101.542 34.3395C101.542 28.6622 96.9404 24.0608 91.263 24.0608C85.587 24.0608 80.9844 28.6622 80.9844 34.3395C80.9844 40.0168 85.587 44.6182 91.263 44.6182Z" fill="#EED24C"/>
<path d="M86.4772 136.493C84.8545 136.493 83.5359 135.173 83.5359 133.552C83.5359 131.929 84.8545 130.611 86.4772 130.611C88.0985 130.611 89.4185 131.929 89.4185 133.552C89.4185 135.173 88.0985 136.493 86.4772 136.493ZM86.4772 124.303C81.3772 124.303 77.2292 128.452 77.2292 133.552C77.2292 138.651 81.3772 142.799 86.4772 142.799C91.5759 142.799 95.7252 138.651 95.7252 133.552C95.7252 128.452 91.5759 124.303 86.4772 124.303Z" fill="#EED24C"/>
<path d="M51.5104 136.493C49.8891 136.493 48.5691 135.173 48.5691 133.552C48.5691 131.929 49.8891 130.611 51.5104 130.611C53.1331 130.611 54.4517 131.929 54.4517 133.552C54.4517 135.173 53.1331 136.493 51.5104 136.493ZM51.5104 124.303C46.4117 124.303 42.2624 128.452 42.2624 133.552C42.2624 138.651 46.4117 142.799 51.5104 142.799C56.6104 142.799 60.7584 138.651 60.7584 133.552C60.7584 128.452 56.6104 124.303 51.5104 124.303Z" fill="#EED24C"/>
<path d="M433.837 109.452C433.837 109.816 433.748 110.21 433.568 110.636C433.388 111.06 433.105 111.477 432.72 111.885C432.335 112.294 431.843 112.626 431.244 112.881C430.644 113.137 429.947 113.264 429.149 113.264C428.545 113.264 427.996 113.206 427.501 113.092C427.007 112.978 426.557 112.8 426.153 112.557C425.751 112.314 425.379 111.996 425.04 111.6C424.739 111.241 424.48 110.838 424.267 110.393C424.053 109.948 423.893 109.473 423.787 108.968C423.68 108.462 423.627 107.925 423.627 107.358C423.627 106.436 423.76 105.61 424.029 104.881C424.297 104.152 424.681 103.529 425.181 103.01C425.681 102.492 426.267 102.097 426.939 101.826C427.611 101.556 428.327 101.421 429.087 101.421C430.015 101.421 430.84 101.605 431.564 101.976C432.288 102.345 432.843 102.802 433.228 103.346C433.613 103.89 433.807 104.405 433.807 104.889C433.807 105.154 433.712 105.389 433.525 105.592C433.337 105.796 433.111 105.897 432.845 105.897C432.548 105.897 432.325 105.826 432.177 105.686C432.029 105.545 431.864 105.304 431.681 104.96C431.379 104.392 431.024 103.968 430.615 103.686C430.205 103.405 429.701 103.264 429.103 103.264C428.149 103.264 427.391 103.626 426.825 104.35C426.26 105.074 425.977 106.102 425.977 107.436C425.977 108.326 426.103 109.068 426.353 109.658C426.603 110.25 426.957 110.692 427.416 110.982C427.873 111.274 428.411 111.421 429.025 111.421C429.692 111.421 430.255 111.256 430.716 110.924C431.177 110.593 431.525 110.108 431.759 109.468C431.859 109.165 431.98 108.92 432.127 108.729C432.272 108.538 432.507 108.444 432.829 108.444C433.105 108.444 433.343 108.54 433.54 108.733C433.739 108.925 433.837 109.165 433.837 109.452Z" fill="#68257B"/>
<path d="M444.259 107.311C444.259 106.473 444.123 105.746 443.852 105.131C443.582 104.517 443.195 104.053 442.692 103.737C442.19 103.422 441.614 103.265 440.962 103.265C440.499 103.265 440.07 103.351 439.676 103.526C439.284 103.701 438.946 103.954 438.662 104.287C438.378 104.621 438.154 105.047 437.99 105.565C437.826 106.083 437.743 106.666 437.743 107.311C437.743 107.962 437.826 108.551 437.99 109.077C438.154 109.603 438.386 110.039 438.684 110.386C438.984 110.731 439.328 110.991 439.716 111.163C440.104 111.335 440.53 111.421 440.994 111.421C441.587 111.421 442.132 111.273 442.63 110.975C443.127 110.678 443.523 110.221 443.818 109.601C444.112 108.981 444.259 108.218 444.259 107.311ZM440.962 101.421C442.15 101.421 443.17 101.662 444.02 102.143C444.872 102.625 445.516 103.31 445.954 104.198C446.392 105.086 446.611 106.129 446.611 107.327C446.611 108.213 446.491 109.017 446.251 109.741C446.011 110.465 445.652 111.093 445.174 111.623C444.694 112.155 444.106 112.562 443.407 112.842C442.71 113.123 441.91 113.265 441.008 113.265C440.114 113.265 439.311 113.119 438.603 112.831C437.895 112.542 437.303 112.134 436.83 111.609C436.355 111.082 435.998 110.45 435.755 109.71C435.512 108.97 435.392 108.171 435.392 107.311C435.392 106.431 435.518 105.623 435.771 104.89C436.023 104.155 436.39 103.53 436.868 103.014C437.347 102.499 437.931 102.105 438.619 101.831C439.306 101.558 440.087 101.421 440.962 101.421Z" fill="#68257B"/>
<path d="M421.35 112.597C421.028 112.597 420.749 112.493 420.514 112.285C420.28 112.075 420.162 111.785 420.162 111.409C420.162 111.091 420.274 110.818 420.498 110.589C420.722 110.359 420.998 110.245 421.326 110.245C421.656 110.245 421.934 110.358 422.166 110.585C422.398 110.811 422.514 111.086 422.514 111.409C422.514 111.779 422.398 112.069 422.166 112.281C421.934 112.491 421.662 112.597 421.35 112.597Z" fill="#68257B"/>
</g>
<defs>
<clipPath id="clip0_697_86851">
<rect width="458.57" height="164.977" fill="white" transform="translate(0.97052 0.941406)"/>
</clipPath>
</defs>
</svg>
