<svg width="419" height="171" viewBox="0 0 419 171" fill="none" xmlns="http://www.w3.org/2000/svg">
<path d="M311.88 21.2998C317.848 21.2998 322.324 16.8238 322.324 10.8558C322.324 5.18647 317.848 0.411804 311.88 0.411804C306.212 0.411804 301.439 5.18647 301.439 10.8558C301.439 16.8238 306.212 21.2998 311.88 21.2998Z" fill="#EED24B"/>
<path d="M311.881 77.4775H192.932V94.1162H311.881V77.4775Z" fill="#EED24B"/>
<path d="M311.881 76.4733C303.488 76.4733 296.685 69.6693 296.685 61.2773C296.685 52.8839 303.488 46.0799 311.881 46.0799C320.275 46.0799 327.077 52.8839 327.077 61.2773C327.077 69.6693 320.275 76.4733 311.881 76.4733ZM311.881 28.7866C293.937 28.7866 279.392 43.3333 279.392 61.2773C279.392 79.2199 293.937 93.7666 311.881 93.7666C329.825 93.7666 344.371 79.2199 344.371 61.2773C344.371 43.3333 329.825 28.7866 311.881 28.7866Z" fill="#EED24B"/>
<path d="M385.595 76.6481C377.202 76.6481 370.398 69.8441 370.398 61.4521C370.398 53.0587 377.202 46.2547 385.595 46.2547C393.987 46.2547 400.791 53.0587 400.791 61.4521C400.791 69.8441 393.987 76.6481 385.595 76.6481ZM385.595 28.9614C367.651 28.9614 353.106 43.5081 353.106 61.4521C353.106 79.3947 367.651 93.9414 385.595 93.9414C403.538 93.9414 418.084 79.3947 418.084 61.4521C418.084 43.5081 403.538 28.9614 385.595 28.9614Z" fill="#EED24B"/>
<path d="M176.027 137.51L175.986 137.469C172.773 134.318 172.533 129.266 175.346 125.754C196.381 99.4861 187.267 73.7061 181.159 62.1474C179.163 58.3688 180.175 53.7074 183.582 51.1261C187.858 47.8848 194.031 49.2394 196.525 53.9914C199.391 59.4607 202.709 67.2394 204.534 76.5248C207.57 91.9634 206.969 114.333 188.883 136.771C185.665 140.766 179.69 141.102 176.027 137.51Z" fill="#EED24B"/>
<path d="M401.751 66.3205C401.751 67.8845 401.669 69.3992 401.505 70.8365C401.029 75.0352 397.609 78.2965 393.391 78.5791C392.217 78.6578 391.054 78.7018 389.907 78.7191C389.907 78.7191 393.354 93.1205 395.185 92.9765C395.353 93.0032 395.677 91.9778 395.635 91.9551C396.165 92.3031 391.853 100.362 391.521 101.043C387.514 109.236 383.515 117.19 378.335 124.71C375.691 128.544 377.191 133.835 381.451 135.719C381.473 135.728 381.495 135.738 381.515 135.748C385.385 137.459 389.957 136.224 392.358 132.743C401.117 120.042 408.687 102.191 412.55 92.5365C416.118 83.7311 418.085 73.8245 418.085 64.6391C418.085 42.6471 401.751 56.5791 401.751 66.3205Z" fill="#EED24B"/>
<path d="M221.6 127.585C221.6 127.265 221.627 126.926 221.68 126.566C221.747 126.192 221.84 125.799 221.96 125.386C222.093 124.959 222.253 124.513 222.44 124.046L223.879 124.606C223.746 124.979 223.626 125.333 223.519 125.666C223.426 125.999 223.353 126.312 223.3 126.606C223.26 126.899 223.24 127.179 223.24 127.445C223.24 128.085 223.406 128.639 223.739 129.105C224.086 129.572 224.559 129.932 225.159 130.185C225.759 130.438 226.459 130.565 227.259 130.565C228.232 130.565 229.032 130.425 229.658 130.145C230.298 129.865 230.791 129.438 231.138 128.865C231.498 128.292 231.738 127.565 231.858 126.686C231.978 125.792 232.018 124.746 231.978 123.546L231.598 113.288H233.258L233.597 123.966C233.624 124.859 233.584 125.719 233.477 126.546C233.384 127.359 233.198 128.105 232.918 128.785C232.638 129.478 232.251 130.078 231.758 130.585C231.265 131.105 230.645 131.505 229.898 131.785C229.152 132.065 228.252 132.204 227.199 132.204C226.492 132.204 225.806 132.111 225.139 131.925C224.473 131.738 223.873 131.458 223.34 131.085C222.806 130.711 222.38 130.232 222.06 129.645C221.753 129.072 221.6 128.385 221.6 127.585ZM240.722 127.665C239.656 127.665 238.836 127.545 238.263 127.305C237.703 127.066 237.316 126.692 237.103 126.186C236.89 125.679 236.77 125.026 236.743 124.226L236.343 113.288H237.983L238.383 123.586C238.409 124.239 238.469 124.746 238.563 125.106C238.669 125.453 238.896 125.692 239.243 125.826C239.602 125.959 240.162 126.026 240.922 126.026C241.202 126.026 241.402 126.106 241.522 126.266C241.655 126.412 241.722 126.592 241.722 126.806C241.722 127.019 241.629 127.219 241.442 127.405C241.255 127.579 241.016 127.665 240.722 127.665ZM240.723 127.665L240.923 126.026C241.296 126.026 241.609 125.946 241.862 125.786C242.116 125.626 242.362 125.359 242.602 124.986C242.842 124.613 243.102 124.113 243.382 123.486C243.769 122.633 244.149 121.987 244.522 121.547C244.908 121.107 245.288 120.807 245.662 120.647C246.048 120.487 246.428 120.407 246.801 120.407C247.255 120.407 247.675 120.527 248.061 120.767C248.448 120.993 248.788 121.3 249.081 121.687C249.374 122.073 249.601 122.5 249.761 122.966C249.934 123.42 250.021 123.873 250.021 124.326C250.021 125.126 249.881 125.766 249.601 126.246C249.321 126.712 248.961 127.052 248.521 127.265C248.094 127.465 247.648 127.565 247.181 127.565C246.768 127.565 246.235 127.485 245.582 127.325C244.942 127.166 244.129 126.759 243.142 126.106L243.922 124.846C244.575 125.259 245.162 125.546 245.682 125.706C246.215 125.852 246.655 125.926 247.001 125.926C247.388 125.926 247.695 125.872 247.921 125.766C248.148 125.646 248.314 125.479 248.421 125.266C248.528 125.053 248.581 124.813 248.581 124.546C248.581 124.159 248.488 123.773 248.301 123.386C248.114 123 247.874 122.68 247.581 122.426C247.301 122.173 247.001 122.047 246.681 122.047C246.441 122.047 246.208 122.113 245.982 122.247C245.755 122.38 245.522 122.626 245.282 122.986C245.042 123.346 244.768 123.866 244.462 124.546C244.142 125.266 243.835 125.839 243.542 126.266C243.262 126.679 242.975 126.986 242.682 127.186C242.389 127.385 242.082 127.512 241.762 127.565C241.456 127.632 241.109 127.665 240.723 127.665Z" fill="#EED24B"/>
<path d="M256.524 127.75C256.055 127.75 255.653 127.584 255.317 127.253C254.985 126.917 254.82 126.515 254.82 126.046C254.82 125.582 254.985 125.184 255.317 124.853C255.653 124.522 256.055 124.356 256.524 124.356C256.978 124.356 257.376 124.522 257.717 124.853C258.058 125.184 258.228 125.582 258.228 126.046C258.228 126.358 258.148 126.645 257.987 126.905C257.83 127.161 257.624 127.367 257.369 127.523C257.113 127.674 256.832 127.75 256.524 127.75Z" fill="#EED24B"/>
<path d="M261.981 126.666L262.781 125.286C263.047 125.459 263.42 125.626 263.9 125.786C264.38 125.946 264.94 126.026 265.58 126.026C266.246 126.026 266.773 125.959 267.16 125.826C267.56 125.692 267.846 125.499 268.019 125.246C268.206 124.979 268.299 124.673 268.299 124.326C268.299 124.059 268.239 123.733 268.119 123.346C268.013 122.946 267.773 122.413 267.4 121.747C267.026 121.067 266.453 120.18 265.68 119.087L267.06 118.187C267.766 119.16 268.326 120.04 268.739 120.827C269.166 121.613 269.466 122.306 269.639 122.906C269.826 123.493 269.919 123.999 269.919 124.426C269.919 124.959 269.786 125.479 269.519 125.986C269.253 126.479 268.806 126.886 268.179 127.206C267.553 127.525 266.686 127.685 265.58 127.685C265.1 127.685 264.633 127.645 264.18 127.565C263.74 127.485 263.334 127.372 262.96 127.225C262.587 127.066 262.261 126.879 261.981 126.666ZM271.97 132.165L271.61 130.525C272.41 130.418 273.143 130.265 273.81 130.065C274.489 129.878 275.069 129.605 275.549 129.245C276.042 128.885 276.422 128.412 276.689 127.825C276.956 127.239 277.089 126.506 277.089 125.626C277.089 124.719 276.922 123.966 276.589 123.366C276.256 122.766 275.822 122.466 275.289 122.466C275.009 122.466 274.749 122.573 274.509 122.786C274.269 123 274.069 123.286 273.91 123.646C273.763 124.006 273.69 124.399 273.69 124.826C273.69 125.066 273.743 125.266 273.85 125.426C273.956 125.572 274.109 125.692 274.309 125.786C274.523 125.866 274.789 125.926 275.109 125.966C275.429 126.006 275.802 126.026 276.229 126.026H280.448C280.728 126.026 280.928 126.106 281.048 126.266C281.181 126.412 281.248 126.592 281.248 126.806C281.248 127.019 281.155 127.219 280.968 127.405C280.781 127.579 280.542 127.665 280.248 127.665H275.469C274.869 127.665 274.309 127.579 273.79 127.405C273.283 127.232 272.87 126.966 272.55 126.606C272.243 126.232 272.09 125.746 272.09 125.146C272.09 124.586 272.177 124.053 272.35 123.546C272.523 123.026 272.756 122.566 273.05 122.167C273.356 121.753 273.71 121.427 274.109 121.187C274.523 120.947 274.969 120.827 275.449 120.827C276.062 120.827 276.609 121.007 277.089 121.367C277.569 121.727 277.949 122.273 278.229 123.006C278.509 123.726 278.649 124.639 278.649 125.746C278.649 126.986 278.395 128.052 277.889 128.945C277.395 129.852 276.649 130.571 275.649 131.105C274.663 131.638 273.436 131.991 271.97 132.165ZM286.381 131.905C285.541 131.905 284.781 131.711 284.101 131.325C283.421 130.938 282.881 130.352 282.481 129.565C282.081 128.792 281.882 127.819 281.882 126.646C281.882 125.566 282.008 124.573 282.261 123.666C282.515 122.76 282.848 121.98 283.261 121.327C283.688 120.66 284.154 120.147 284.661 119.787C285.168 119.427 285.667 119.247 286.161 119.247C286.601 119.247 286.994 119.374 287.34 119.627C287.687 119.88 287.96 120.234 288.16 120.687C288.36 121.14 288.46 121.68 288.46 122.306C288.46 122.866 288.374 123.426 288.2 123.986C288.027 124.546 287.7 125.053 287.22 125.506C286.754 125.959 286.081 126.306 285.201 126.546L286.501 125.446C286.927 125.553 287.354 125.652 287.78 125.746C288.22 125.826 288.667 125.892 289.12 125.946C289.587 125.999 290.073 126.026 290.58 126.026C290.86 126.026 291.06 126.106 291.18 126.266C291.313 126.412 291.38 126.592 291.38 126.806C291.38 127.019 291.286 127.219 291.1 127.405C290.913 127.579 290.673 127.665 290.38 127.665C290.02 127.665 289.633 127.645 289.22 127.605C288.807 127.565 288.394 127.519 287.98 127.465C287.567 127.399 287.174 127.325 286.801 127.245L288.54 127.186C288.873 127.545 289.1 127.932 289.22 128.345C289.353 128.772 289.387 129.192 289.32 129.605C289.267 130.032 289.113 130.418 288.86 130.765C288.62 131.111 288.294 131.385 287.88 131.585C287.467 131.798 286.967 131.905 286.381 131.905ZM280.242 127.665L280.442 126.026C280.722 126.026 281.002 126.026 281.282 126.026C281.562 126.026 281.828 126.019 282.081 126.006L282.161 127.485C281.855 127.539 281.535 127.579 281.202 127.605C280.882 127.645 280.562 127.665 280.242 127.665ZM286.421 130.265C286.661 130.265 286.894 130.218 287.12 130.125C287.36 130.045 287.554 129.898 287.7 129.685C287.86 129.485 287.94 129.212 287.94 128.865C287.94 128.532 287.854 128.225 287.68 127.945C287.52 127.679 287.234 127.459 286.821 127.285C286.407 127.112 285.821 127.026 285.061 127.026C284.901 127.026 284.721 127.039 284.521 127.066C284.334 127.079 284.141 127.106 283.941 127.146C283.741 127.172 283.535 127.212 283.321 127.265V125.906C283.828 125.839 284.288 125.739 284.701 125.606C285.128 125.459 285.501 125.259 285.821 125.006C286.141 124.753 286.387 124.419 286.561 124.006C286.734 123.593 286.821 123.086 286.821 122.486C286.821 122.286 286.794 122.06 286.741 121.807C286.701 121.553 286.621 121.34 286.501 121.167C286.381 120.98 286.221 120.887 286.021 120.887C285.821 120.887 285.574 121.02 285.281 121.287C285.001 121.553 284.721 121.927 284.441 122.406C284.174 122.886 283.948 123.46 283.761 124.126C283.588 124.779 283.501 125.499 283.501 126.286C283.501 127.152 283.594 127.845 283.781 128.365C283.981 128.898 284.234 129.298 284.541 129.565C284.848 129.845 285.168 130.032 285.501 130.125C285.834 130.218 286.141 130.265 286.421 130.265ZM303.114 127.665C302.554 127.665 302.041 127.632 301.574 127.565C301.108 127.485 300.688 127.345 300.314 127.146C299.941 126.946 299.628 126.659 299.375 126.286C299.121 125.899 298.928 125.393 298.795 124.766L299.975 124.066C300.148 124.599 300.361 125.006 300.614 125.286C300.868 125.566 301.208 125.759 301.634 125.866C302.074 125.972 302.634 126.026 303.314 126.026C303.594 126.026 303.794 126.106 303.914 126.266C304.047 126.412 304.114 126.592 304.114 126.806C304.114 127.019 304.02 127.219 303.834 127.405C303.647 127.579 303.407 127.665 303.114 127.665ZM290.377 127.665L290.556 126.026C291.25 126.026 291.93 125.972 292.596 125.866C293.263 125.759 293.916 125.606 294.556 125.406C295.196 125.206 295.809 124.966 296.395 124.686C296.995 124.393 297.562 124.059 298.095 123.686C297.748 123.38 297.348 123.113 296.895 122.886C296.442 122.66 295.942 122.486 295.395 122.366C294.862 122.233 294.296 122.167 293.696 122.167C293.483 122.167 293.283 122.173 293.096 122.187C292.909 122.2 292.723 122.227 292.536 122.267C292.349 122.293 292.136 122.333 291.896 122.386L291.576 120.867C291.936 120.76 292.296 120.68 292.656 120.627C293.016 120.56 293.363 120.527 293.696 120.527C294.389 120.527 295.016 120.614 295.575 120.787C296.135 120.947 296.642 121.147 297.095 121.387C297.562 121.627 297.995 121.867 298.395 122.107C298.808 122.346 299.208 122.553 299.595 122.726C299.981 122.886 300.381 122.966 300.794 122.966H301.214L301.354 124.406C300.781 124.406 300.255 124.486 299.775 124.646C299.295 124.806 298.821 125.013 298.355 125.266C297.902 125.506 297.422 125.766 296.915 126.046C296.409 126.312 295.849 126.572 295.236 126.826C294.622 127.066 293.916 127.265 293.116 127.425C292.329 127.585 291.416 127.665 290.377 127.665ZM295.595 131.285C295.316 131.285 295.076 131.185 294.876 130.985C294.689 130.798 294.596 130.571 294.596 130.305C294.596 130.038 294.689 129.805 294.876 129.605C295.076 129.405 295.316 129.305 295.595 129.305C295.862 129.305 296.089 129.405 296.275 129.605C296.475 129.805 296.575 130.038 296.575 130.305C296.575 130.571 296.475 130.798 296.275 130.985C296.089 131.185 295.862 131.285 295.595 131.285ZM303.108 127.665L303.308 126.026C303.682 126.026 303.995 125.946 304.248 125.786C304.501 125.626 304.748 125.359 304.988 124.986C305.228 124.613 305.488 124.113 305.768 123.486C306.154 122.633 306.534 121.987 306.908 121.547C307.294 121.107 307.674 120.807 308.047 120.647C308.434 120.487 308.814 120.407 309.187 120.407C309.64 120.407 310.06 120.527 310.447 120.767C310.833 120.993 311.173 121.3 311.467 121.687C311.76 122.073 311.987 122.5 312.146 122.966C312.32 123.42 312.406 123.873 312.406 124.326C312.406 125.126 312.266 125.766 311.987 126.246C311.707 126.712 311.347 127.052 310.907 127.265C310.48 127.465 310.034 127.565 309.567 127.565C309.154 127.565 308.621 127.485 307.967 127.325C307.327 127.166 306.514 126.759 305.528 126.106L306.308 124.846C306.961 125.259 307.547 125.546 308.067 125.706C308.601 125.852 309.04 125.926 309.387 125.926C309.774 125.926 310.08 125.872 310.307 125.766C310.533 125.646 310.7 125.479 310.807 125.266C310.913 125.053 310.967 124.813 310.967 124.546C310.967 124.159 310.873 123.773 310.687 123.386C310.5 123 310.26 122.68 309.967 122.426C309.687 122.173 309.387 122.047 309.067 122.047C308.827 122.047 308.594 122.113 308.367 122.247C308.141 122.38 307.907 122.626 307.667 122.986C307.427 123.346 307.154 123.866 306.848 124.546C306.528 125.266 306.221 125.839 305.928 126.266C305.648 126.679 305.361 126.986 305.068 127.186C304.775 127.385 304.468 127.512 304.148 127.565C303.841 127.632 303.495 127.665 303.108 127.665Z" fill="#EED24B"/>
<path d="M319.176 127.75C318.707 127.75 318.305 127.584 317.969 127.253C317.637 126.917 317.472 126.515 317.472 126.046C317.472 125.582 317.637 125.184 317.969 124.853C318.305 124.522 318.707 124.356 319.176 124.356C319.63 124.356 320.028 124.522 320.369 124.853C320.71 125.184 320.88 125.582 320.88 126.046C320.88 126.358 320.8 126.645 320.639 126.905C320.482 127.161 320.276 127.367 320.021 127.523C319.765 127.674 319.484 127.75 319.176 127.75Z" fill="#EED24B"/>
<path d="M331.731 127.985L332.251 126.346C333.064 126.346 333.924 126.299 334.831 126.206C335.737 126.099 336.637 125.919 337.53 125.666C338.437 125.399 339.296 125.039 340.11 124.586C340.923 124.133 341.636 123.56 342.249 122.866L343.509 123.606C343.389 123.913 343.309 124.159 343.269 124.346C343.229 124.519 343.209 124.679 343.209 124.826C343.209 125.026 343.282 125.219 343.429 125.406C343.575 125.579 343.849 125.726 344.249 125.846C344.662 125.966 345.242 126.026 345.988 126.026C346.268 126.026 346.468 126.106 346.588 126.266C346.722 126.412 346.788 126.592 346.788 126.806C346.788 127.019 346.695 127.219 346.508 127.405C346.322 127.579 346.082 127.665 345.788 127.665C344.935 127.665 344.182 127.579 343.529 127.405C342.889 127.219 342.409 126.932 342.089 126.546C341.783 126.146 341.683 125.632 341.789 125.006L342.149 125.126C341.616 125.606 340.976 126.026 340.23 126.386C339.496 126.732 338.676 127.026 337.77 127.265C336.877 127.505 335.917 127.685 334.891 127.805C333.877 127.925 332.824 127.985 331.731 127.985ZM331.731 127.985C330.545 127.985 329.498 127.905 328.592 127.745C327.699 127.599 326.952 127.365 326.352 127.046C325.752 126.726 325.299 126.312 324.993 125.806C324.686 125.286 324.533 124.659 324.533 123.926C324.533 123.593 324.559 123.253 324.613 122.906C324.666 122.546 324.733 122.187 324.813 121.827C324.906 121.467 324.999 121.12 325.093 120.787L326.592 121.167C326.539 121.367 326.479 121.607 326.412 121.887C326.346 122.153 326.286 122.426 326.232 122.706C326.192 122.986 326.172 123.24 326.172 123.466C326.172 124.159 326.346 124.719 326.692 125.146C327.052 125.559 327.672 125.866 328.552 126.066C329.432 126.252 330.665 126.346 332.251 126.346L332.651 127.345L331.731 127.985ZM335.091 119.547C334.811 119.547 334.571 119.454 334.371 119.267C334.184 119.067 334.091 118.834 334.091 118.567C334.091 118.301 334.184 118.067 334.371 117.867C334.571 117.667 334.811 117.567 335.091 117.567C335.357 117.567 335.584 117.667 335.77 117.867C335.97 118.067 336.07 118.301 336.07 118.567C336.07 118.834 335.97 119.067 335.77 119.267C335.584 119.454 335.357 119.547 335.091 119.547ZM332.351 119.547C332.071 119.547 331.831 119.454 331.631 119.267C331.445 119.067 331.351 118.834 331.351 118.567C331.351 118.301 331.445 118.067 331.631 117.867C331.831 117.667 332.071 117.567 332.351 117.567C332.618 117.567 332.844 117.667 333.031 117.867C333.231 118.067 333.331 118.301 333.331 118.567C333.331 118.834 333.231 119.067 333.031 119.267C332.844 119.454 332.618 119.547 332.351 119.547ZM345.784 127.665L345.984 126.026C346.317 126.026 346.684 126.026 347.084 126.026C347.497 126.012 347.91 125.999 348.323 125.986C348.75 125.972 349.143 125.946 349.503 125.906C349.863 125.852 350.163 125.786 350.403 125.706C350.883 125.533 351.256 125.319 351.523 125.066C351.789 124.799 351.976 124.453 352.083 124.026C352.203 123.586 352.263 123.026 352.263 122.346C352.263 121.787 352.189 121.267 352.043 120.787C351.896 120.307 351.689 119.92 351.423 119.627C351.156 119.334 350.836 119.187 350.463 119.187C350.156 119.187 349.876 119.307 349.623 119.547C349.383 119.774 349.19 120.067 349.043 120.427C348.91 120.787 348.843 121.147 348.843 121.507C348.843 121.787 348.897 122.027 349.003 122.227C349.123 122.426 349.316 122.586 349.583 122.706C349.85 122.813 350.196 122.866 350.623 122.866C351.009 122.866 351.396 122.826 351.783 122.746C352.183 122.666 352.522 122.56 352.802 122.426L352.882 123.826C352.669 123.973 352.429 124.093 352.163 124.186C351.896 124.279 351.616 124.346 351.323 124.386C351.029 124.426 350.736 124.446 350.443 124.446C349.763 124.446 349.183 124.339 348.703 124.126C348.237 123.9 347.877 123.6 347.623 123.226C347.384 122.84 347.264 122.4 347.264 121.907C347.264 121.4 347.344 120.893 347.504 120.387C347.663 119.867 347.89 119.394 348.183 118.967C348.477 118.541 348.83 118.201 349.243 117.947C349.656 117.681 350.116 117.547 350.623 117.547C351.343 117.547 351.936 117.781 352.403 118.247C352.882 118.714 353.236 119.327 353.462 120.087C353.702 120.833 353.822 121.627 353.822 122.466C353.822 123.466 353.649 124.326 353.302 125.046C352.969 125.752 352.409 126.339 351.623 126.806C351.316 126.979 350.943 127.126 350.503 127.245C350.076 127.352 349.603 127.439 349.083 127.505C348.577 127.572 348.043 127.612 347.484 127.625C346.924 127.652 346.357 127.665 345.784 127.665ZM351.643 115.488C351.363 115.488 351.123 115.395 350.923 115.208C350.736 115.008 350.643 114.775 350.643 114.508C350.643 114.241 350.736 114.008 350.923 113.808C351.123 113.608 351.363 113.508 351.643 113.508C351.909 113.508 352.136 113.608 352.323 113.808C352.522 114.008 352.622 114.241 352.622 114.508C352.622 114.775 352.522 115.008 352.323 115.208C352.136 115.395 351.909 115.488 351.643 115.488ZM348.903 115.488C348.623 115.488 348.383 115.395 348.183 115.208C347.997 115.008 347.903 114.775 347.903 114.508C347.903 114.241 347.997 114.008 348.183 113.808C348.383 113.608 348.623 113.508 348.903 113.508C349.17 113.508 349.396 113.608 349.583 113.808C349.783 114.008 349.883 114.241 349.883 114.508C349.883 114.775 349.783 115.008 349.583 115.208C349.396 115.395 349.17 115.488 348.903 115.488ZM355.887 132.165L355.527 130.525C356.327 130.418 357.06 130.265 357.727 130.065C358.407 129.878 358.986 129.605 359.466 129.245C359.96 128.885 360.34 128.412 360.606 127.825C360.873 127.239 361.006 126.506 361.006 125.626C361.006 125.213 360.966 124.819 360.886 124.446C360.806 124.059 360.686 123.72 360.526 123.426C360.366 123.133 360.173 122.9 359.946 122.726C359.733 122.553 359.486 122.466 359.206 122.466C358.9 122.466 358.62 122.586 358.367 122.826C358.127 123.053 357.933 123.346 357.787 123.706C357.653 124.066 357.587 124.426 357.587 124.786C357.587 125.066 357.64 125.313 357.747 125.526C357.867 125.726 358.06 125.879 358.327 125.986C358.593 126.092 358.94 126.146 359.366 126.146C359.753 126.146 360.14 126.106 360.526 126.026C360.926 125.946 361.266 125.839 361.546 125.706L361.626 127.106C361.306 127.332 360.926 127.492 360.486 127.585C360.06 127.679 359.626 127.725 359.186 127.725C358.68 127.725 358.227 127.672 357.827 127.565C357.44 127.459 357.107 127.305 356.827 127.106C356.56 126.892 356.354 126.626 356.207 126.306C356.074 125.986 356.007 125.612 356.007 125.186C356.007 124.679 356.087 124.173 356.247 123.666C356.407 123.146 356.634 122.673 356.927 122.247C357.22 121.82 357.573 121.48 357.987 121.227C358.4 120.96 358.86 120.827 359.366 120.827C359.9 120.827 360.366 120.967 360.766 121.247C361.166 121.513 361.499 121.88 361.766 122.346C362.033 122.813 362.233 123.34 362.366 123.926C362.499 124.513 362.566 125.119 362.566 125.746C362.566 126.986 362.312 128.052 361.806 128.945C361.313 129.852 360.566 130.571 359.566 131.105C358.58 131.638 357.353 131.991 355.887 132.165Z" fill="#EED24B"/>
<path d="M164.979 88.4892C164.979 134.047 128.047 170.979 82.4893 170.979C36.932 170.979 0 134.047 0 88.4892C0 42.9318 36.932 5.99985 82.4893 5.99985C128.047 5.99985 164.979 42.9318 164.979 88.4892Z" fill="#EED24B" fill-opacity="0.1"/>
<path d="M115.088 75.9201L112.807 83.4161C105.636 72.9868 111.34 51.1494 118.509 49.0308C124.051 47.2388 120.14 58.3201 115.088 75.9201ZM85.1213 61.3694C89.812 60.1428 85.8 69.7268 80.384 85.0268L77.9693 91.5348C72.8107 81.7961 79.0667 62.7761 85.1213 61.3694ZM144.584 76.5721C141.976 81.4601 136.273 85.8601 130.08 87.8161C132.199 83.9041 133.828 79.8308 135.132 75.9201C141.324 55.7121 133.013 39.5801 120.303 43.4908C103.192 48.7054 97.6507 78.6908 110.525 89.7708C104.496 106.883 96.6733 122.689 88.1987 122.689C84.2507 122.689 78.6667 115.047 79.964 112.32C80.136 112.152 80.3187 111.997 80.488 111.827C80.6213 111.692 80.7507 111.556 80.8827 111.421C80.8867 111.419 80.8907 111.416 80.8933 111.415C80.8933 111.413 80.8933 111.412 80.8933 111.411C85.5107 106.672 88.9453 101.447 89.54 100.479C91.028 98.0614 91.7853 96.8161 91.8787 96.5868C93.9026 93.2534 95.536 89.7428 96.8893 86.3548C103.431 68.8148 97.74 53.9334 86.9933 56.5654C72.532 60.0654 65.828 86.3334 75.6373 97.0294C74.2533 101.033 72.1667 105.911 68.9733 111.089C67.9467 112.753 66.8453 114.363 65.728 115.963C64.588 117.595 63.152 119.087 61.872 120.617C61.8293 120.669 61.7893 120.724 61.7493 120.779C59.4627 121.996 57.3627 122.689 55.608 122.689C49.4147 122.689 52.5107 110.304 67.0147 74.1268C75 54.2468 67.504 39.4174 53.4893 42.5134C53.3253 42.5134 55.1187 53.9201 46.808 74.1268C46.112 75.8414 45.4773 77.4988 44.876 79.1268C37.0333 94.3788 32.8813 102.936 21.46 110.899C20.5347 111.519 25.5387 129.699 32.4053 124.428C35.196 122.28 37.4813 119.444 39.4387 116.112C41.3067 123.36 45.932 126.927 52.0227 126.927C56.588 126.927 61.548 125.231 66.4427 122.259C67.912 121.44 69.3507 120.572 70.7547 119.648C73.848 124.084 78.3627 126.927 84.6147 126.927C98.3027 126.927 116.555 110.631 127.636 92.3788C135.783 89.9348 143.443 84.2308 146.049 79.9934C148.005 76.7348 148.332 74.2894 148.332 73.4761C148.332 70.3788 147.517 70.8681 144.584 76.5721Z" fill="#EED24C"/>
<path d="M90.2925 49.6768C95.9699 49.6768 100.571 45.0754 100.571 39.3981C100.571 33.7208 95.9699 29.1194 90.2925 29.1194C84.6165 29.1194 80.0139 33.7208 80.0139 39.3981C80.0139 45.0754 84.6165 49.6768 90.2925 49.6768Z" fill="#EED24C"/>
<path d="M85.5067 141.552C83.884 141.552 82.5653 140.232 82.5653 138.61C82.5653 136.989 83.884 135.669 85.5067 135.669C87.128 135.669 88.448 136.989 88.448 138.61C88.448 140.232 87.128 141.552 85.5067 141.552ZM85.5067 129.362C80.4067 129.362 76.2587 133.51 76.2587 138.61C76.2587 143.71 80.4067 147.858 85.5067 147.858C90.6053 147.858 94.7547 143.71 94.7547 138.61C94.7547 133.51 90.6053 129.362 85.5067 129.362Z" fill="#EED24C"/>
<path d="M50.5399 141.552C48.9185 141.552 47.5985 140.232 47.5985 138.61C47.5985 136.989 48.9185 135.669 50.5399 135.669C52.1625 135.669 53.4812 136.989 53.4812 138.61C53.4812 140.232 52.1625 141.552 50.5399 141.552ZM50.5399 129.362C45.4412 129.362 41.2919 133.51 41.2919 138.61C41.2919 143.71 45.4412 147.858 50.5399 147.858C55.6399 147.858 59.7879 143.71 59.7879 138.61C59.7879 133.51 55.6399 129.362 50.5399 129.362Z" fill="#EED24C"/>
</svg>
