<svg width="459" height="165" viewBox="0 0 459 165" fill="none" xmlns="http://www.w3.org/2000/svg">
<g clip-path="url(#clip0_697_86852)">
<path d="M451.492 110.401L449.656 103.104V111.01C449.656 111.448 449.558 111.776 449.362 111.994C449.168 112.213 448.909 112.322 448.585 112.322C448.273 112.322 448.018 112.214 447.82 111.998C447.622 111.782 447.522 111.453 447.522 111.01V101.948C447.522 101.448 447.653 101.11 447.913 100.936C448.174 100.762 448.525 100.674 448.968 100.674H449.686C450.12 100.674 450.433 100.713 450.629 100.792C450.824 100.87 450.968 101.01 451.062 101.213C451.156 101.417 451.262 101.748 451.382 102.206L453.046 108.48L454.71 102.206C454.83 101.748 454.937 101.417 455.03 101.213C455.125 101.01 455.269 100.87 455.464 100.792C455.66 100.713 455.973 100.674 456.406 100.674H457.125C457.568 100.674 457.918 100.762 458.18 100.936C458.44 101.11 458.57 101.448 458.57 101.948V111.01C458.57 111.448 458.472 111.776 458.277 111.994C458.081 112.213 457.82 112.322 457.492 112.322C457.185 112.322 456.932 112.213 456.734 111.994C456.536 111.776 456.437 111.448 456.437 111.01V103.104L454.601 110.401C454.481 110.874 454.384 111.222 454.308 111.444C454.233 111.665 454.093 111.868 453.89 112.049C453.686 112.232 453.406 112.322 453.046 112.322C452.776 112.322 452.546 112.264 452.358 112.148C452.172 112.03 452.025 111.88 451.921 111.698C451.817 111.516 451.736 111.314 451.676 111.093C451.616 110.872 451.554 110.641 451.492 110.401Z" fill="#EED24C"/>
<path d="M232.218 102.655L220.688 59.8894L209.01 102.655C208.102 105.899 207.381 108.225 206.846 109.636C206.31 111.047 205.378 112.312 204.048 113.431C202.718 114.551 200.95 115.109 198.745 115.109C196.961 115.109 195.493 114.777 194.342 114.112C193.19 113.448 192.257 112.507 191.545 111.291C190.83 110.073 190.246 108.631 189.793 106.96C189.338 105.291 188.933 103.741 188.577 102.313L176.705 54.2934C175.992 51.504 175.634 49.38 175.634 47.92C175.634 46.0707 176.284 44.5147 177.581 43.2494C178.878 41.984 180.484 41.3507 182.397 41.3507C185.025 41.3507 186.792 42.1947 187.701 43.8814C188.608 45.5694 189.404 48.016 190.085 51.2294L199.426 92.8747L209.886 53.904C210.665 50.92 211.362 48.6494 211.978 47.092C212.594 45.536 213.6 44.1894 214.996 43.0547C216.389 41.9187 218.286 41.3507 220.688 41.3507C223.12 41.3507 225.009 41.944 226.356 43.1267C227.701 44.312 228.634 45.6014 229.153 46.996C229.672 48.3907 230.369 50.692 231.245 53.904L241.802 92.8747L251.144 51.2294C251.598 49.056 252.026 47.352 252.433 46.12C252.838 44.888 253.536 43.7854 254.525 42.8107C255.516 41.8387 256.95 41.3507 258.832 41.3507C260.712 41.3507 262.309 41.976 263.624 43.2254C264.937 44.4734 265.594 46.0387 265.594 47.92C265.594 49.2494 265.237 51.3747 264.524 54.2934L252.652 102.313C251.841 105.557 251.169 107.933 250.634 109.441C250.098 110.951 249.19 112.272 247.909 113.407C246.628 114.541 244.82 115.109 242.484 115.109C240.277 115.109 238.51 114.559 237.181 113.456C235.85 112.352 234.925 111.113 234.408 109.735C233.889 108.355 233.158 105.996 232.218 102.655Z" fill="#EED24C"/>
<path d="M304.468 88.4C302.523 89.1134 299.692 89.868 295.979 90.6614C292.264 91.4574 289.694 92.04 288.267 92.4134C286.839 92.7867 285.478 93.5174 284.18 94.6027C282.883 95.6907 282.234 97.2054 282.234 99.152C282.234 101.163 282.996 102.873 284.52 104.285C286.046 105.696 288.04 106.401 290.504 106.401C293.132 106.401 295.556 105.825 297.778 104.673C299.999 103.524 301.63 102.039 302.668 100.223C303.868 98.2107 304.468 94.9027 304.468 90.2974V88.4ZM305.344 107.617C302.134 110.116 299.027 111.988 296.027 113.237C293.027 114.484 289.662 115.109 285.932 115.109C282.526 115.109 279.534 114.436 276.955 113.092C274.378 111.745 272.388 109.921 270.996 107.617C269.6 105.316 268.903 102.817 268.903 100.125C268.903 96.492 270.054 93.3947 272.358 90.832C274.66 88.2694 277.823 86.5507 281.844 85.6747C282.688 85.4814 284.779 85.0427 288.12 84.3614C291.462 83.68 294.324 83.056 296.708 82.488C299.092 81.9214 301.678 81.232 304.468 80.4214C304.306 76.9174 303.6 74.348 302.352 72.708C301.104 71.072 298.516 70.252 294.592 70.252C291.218 70.252 288.68 70.7227 286.978 71.6627C285.274 72.604 283.815 74.0147 282.599 75.896C281.383 77.7774 280.523 79.0187 280.02 79.6174C279.516 80.2174 278.44 80.5187 276.784 80.5187C275.292 80.5187 274.003 80.0387 272.918 79.0827C271.83 78.1267 271.287 76.9014 271.287 75.4094C271.287 73.0747 272.114 70.804 273.77 68.5974C275.423 66.392 278 64.576 281.504 63.1494C285.007 61.7214 289.37 61.008 294.592 61.008C300.431 61.008 305.019 61.6987 308.36 63.076C311.702 64.4547 314.06 66.636 315.44 69.62C316.819 72.604 317.507 76.5614 317.507 81.4907C317.507 84.604 317.499 87.2494 317.483 89.4214C317.467 91.5947 317.442 94.012 317.41 96.6707C317.41 99.168 317.824 101.771 318.651 104.48C319.478 107.188 319.891 108.931 319.891 109.709C319.891 111.072 319.251 112.313 317.97 113.431C316.688 114.551 315.236 115.109 313.615 115.109C312.254 115.109 310.907 114.469 309.578 113.188C308.247 111.908 306.835 110.049 305.344 107.617Z" fill="#EED24C"/>
<path d="M329.912 62.272H333.075V58.2827C333.075 54.132 333.603 50.832 334.658 48.3827C335.711 45.9334 337.495 44.1494 340.008 43.0294C342.522 41.9107 345.968 41.3521 350.347 41.3521C358.099 41.3521 361.975 43.2494 361.975 47.0441C361.975 48.2774 361.57 49.3307 360.759 50.2067C359.947 51.0814 358.991 51.5214 357.888 51.5214C357.37 51.5214 356.478 51.4227 355.214 51.2294C353.947 51.0334 352.878 50.9361 352 50.9361C349.602 50.9361 348.06 51.6414 347.38 53.0534C346.699 54.464 346.358 56.4827 346.358 59.1107V62.272H349.618C354.678 62.272 357.208 63.7987 357.208 66.8467C357.208 69.02 356.534 70.3987 355.188 70.9814C353.842 71.5654 351.986 71.856 349.618 71.856H346.358V107.033C346.358 109.66 345.732 111.664 344.484 113.041C343.235 114.42 341.622 115.109 339.644 115.109C337.763 115.109 336.196 114.42 334.948 113.041C333.7 111.664 333.075 109.66 333.075 107.033V71.856H329.427C327.447 71.856 325.924 71.4107 324.852 70.52C323.782 69.628 323.247 68.468 323.247 67.04C323.247 63.8614 325.468 62.272 329.912 62.272Z" fill="#EED24C"/>
<path d="M366.791 62.272H369.954V58.2827C369.954 54.132 370.482 50.832 371.537 48.3827C372.59 45.9334 374.374 44.1494 376.887 43.0294C379.401 41.9107 382.847 41.3521 387.226 41.3521C394.978 41.3521 398.854 43.2494 398.854 47.0441C398.854 48.2774 398.449 49.3307 397.638 50.2067C396.826 51.0814 395.87 51.5214 394.767 51.5214C394.249 51.5214 393.357 51.4227 392.093 51.2294C390.826 51.0334 389.757 50.9361 388.879 50.9361C386.481 50.9361 384.939 51.6414 384.259 53.0534C383.578 54.464 383.237 56.4827 383.237 59.1107V62.272H386.497C391.557 62.272 394.087 63.7987 394.087 66.8467C394.087 69.02 393.413 70.3987 392.067 70.9814C390.721 71.5654 388.865 71.856 386.497 71.856H383.237V107.033C383.237 109.66 382.611 111.664 381.363 113.041C380.114 114.42 378.501 115.109 376.523 115.109C374.642 115.109 373.075 114.42 371.827 113.041C370.579 111.664 369.954 109.66 369.954 107.033V71.856H366.306C364.326 71.856 362.803 71.4107 361.731 70.52C360.661 69.628 360.126 68.468 360.126 67.04C360.126 63.8614 362.347 62.272 366.791 62.272Z" fill="#EED24C"/>
<path d="M414.23 95.94V107.033C414.23 109.727 413.597 111.745 412.331 113.091C411.067 114.436 409.462 115.109 407.515 115.109C405.601 115.109 404.029 114.428 402.797 113.067C401.563 111.704 400.947 109.693 400.947 107.033V70.0574C400.947 64.0894 403.103 61.1054 407.418 61.1054C409.623 61.1054 411.213 61.8027 412.186 63.196C413.159 64.592 413.695 66.6507 413.791 69.376C415.381 66.6507 417.01 64.592 418.682 63.196C420.351 61.8027 422.582 61.1054 425.37 61.1054C428.159 61.1054 430.869 61.8027 433.495 63.196C436.123 64.592 437.437 66.4414 437.437 68.744C437.437 70.3654 436.877 71.704 435.758 72.7574C434.639 73.812 433.43 74.3387 432.134 74.3387C431.647 74.3387 430.471 74.0387 428.606 73.4387C426.741 72.8387 425.094 72.5387 423.667 72.5387C421.722 72.5387 420.133 73.0494 418.901 74.072C417.667 75.092 416.71 76.6094 416.03 78.62C415.349 80.632 414.878 83.0227 414.619 85.7974C414.359 88.5707 414.23 91.9507 414.23 95.94Z" fill="#EED24C"/>
<path d="M198.095 135.593C198.045 135.097 197.834 134.711 197.461 134.436C197.087 134.161 196.58 134.024 195.94 134.024C195.505 134.024 195.138 134.085 194.838 134.208C194.539 134.327 194.309 134.494 194.149 134.707C193.993 134.92 193.915 135.162 193.915 135.433C193.907 135.659 193.954 135.856 194.057 136.024C194.163 136.193 194.309 136.338 194.494 136.461C194.678 136.58 194.892 136.685 195.134 136.775C195.376 136.861 195.635 136.935 195.909 136.997L197.042 137.268C197.592 137.391 198.097 137.555 198.556 137.76C199.016 137.965 199.414 138.218 199.751 138.517C200.087 138.817 200.348 139.17 200.532 139.576C200.721 139.982 200.817 140.448 200.822 140.973C200.817 141.745 200.62 142.414 200.231 142.98C199.845 143.542 199.287 143.979 198.556 144.291C197.83 144.599 196.954 144.753 195.928 144.753C194.91 144.753 194.024 144.597 193.269 144.285C192.518 143.973 191.931 143.511 191.508 142.9C191.09 142.284 190.87 141.523 190.85 140.616H193.429C193.458 141.039 193.579 141.392 193.792 141.675C194.01 141.954 194.299 142.165 194.66 142.309C195.025 142.449 195.438 142.518 195.897 142.518C196.349 142.518 196.74 142.453 197.073 142.321C197.409 142.19 197.67 142.007 197.855 141.773C198.039 141.54 198.132 141.271 198.132 140.967C198.132 140.684 198.047 140.446 197.879 140.253C197.715 140.06 197.473 139.896 197.153 139.761C196.837 139.625 196.449 139.502 195.99 139.391L194.617 139.047C193.554 138.788 192.715 138.384 192.099 137.834C191.484 137.284 191.178 136.543 191.182 135.612C191.178 134.849 191.381 134.182 191.791 133.611C192.206 133.041 192.774 132.596 193.497 132.276C194.219 131.955 195.04 131.795 195.959 131.795C196.894 131.795 197.711 131.955 198.409 132.276C199.11 132.596 199.656 133.041 200.046 133.611C200.436 134.182 200.637 134.842 200.649 135.593H198.095ZM205.261 144.753C204.658 144.753 204.12 144.648 203.648 144.439C203.177 144.225 202.803 143.911 202.528 143.497C202.257 143.078 202.122 142.557 202.122 141.934C202.122 141.408 202.218 140.967 202.411 140.61C202.604 140.253 202.867 139.966 203.199 139.748C203.532 139.531 203.909 139.367 204.332 139.256C204.759 139.145 205.206 139.067 205.674 139.022C206.224 138.965 206.667 138.911 207.003 138.862C207.34 138.809 207.584 138.731 207.736 138.628C207.888 138.525 207.963 138.374 207.963 138.173V138.136C207.963 137.746 207.84 137.444 207.594 137.231C207.352 137.017 207.007 136.911 206.56 136.911C206.088 136.911 205.713 137.015 205.434 137.225C205.155 137.43 204.97 137.688 204.88 138L202.454 137.803C202.577 137.229 202.82 136.732 203.181 136.314C203.542 135.891 204.008 135.567 204.578 135.341C205.152 135.111 205.817 134.996 206.572 134.996C207.098 134.996 207.6 135.058 208.08 135.181C208.565 135.304 208.993 135.495 209.367 135.753C209.744 136.012 210.042 136.344 210.259 136.751C210.477 137.153 210.586 137.635 210.586 138.197V144.574H208.099V143.263H208.025C207.873 143.559 207.67 143.819 207.416 144.045C207.161 144.266 206.855 144.441 206.498 144.568C206.141 144.691 205.729 144.753 205.261 144.753ZM206.012 142.943C206.398 142.943 206.739 142.867 207.034 142.715C207.329 142.559 207.561 142.35 207.73 142.087C207.898 141.825 207.982 141.527 207.982 141.195V140.192C207.9 140.245 207.787 140.294 207.643 140.339C207.504 140.38 207.346 140.419 207.169 140.456C206.993 140.489 206.816 140.52 206.64 140.549C206.464 140.573 206.304 140.596 206.16 140.616C205.852 140.661 205.583 140.733 205.354 140.832C205.124 140.93 204.945 141.064 204.818 141.232C204.691 141.396 204.627 141.601 204.627 141.847C204.627 142.204 204.756 142.477 205.015 142.666C205.278 142.851 205.61 142.943 206.012 142.943ZM221.096 135.119L217.791 144.574H214.836L211.531 135.119H214.301L216.264 141.884H216.363L218.32 135.119H221.096ZM226.442 144.759C225.47 144.759 224.632 144.562 223.931 144.168C223.233 143.77 222.696 143.208 222.318 142.481C221.94 141.751 221.752 140.887 221.752 139.89C221.752 138.917 221.94 138.064 222.318 137.329C222.696 136.595 223.227 136.022 223.912 135.612C224.602 135.201 225.41 134.996 226.338 134.996C226.961 134.996 227.542 135.097 228.08 135.298C228.621 135.495 229.093 135.792 229.495 136.19C229.902 136.589 230.218 137.089 230.443 137.692C230.669 138.292 230.782 138.993 230.782 139.798V140.518H222.798V138.893H228.313C228.313 138.515 228.231 138.181 228.067 137.889C227.903 137.598 227.675 137.37 227.384 137.206C227.097 137.038 226.762 136.954 226.381 136.954C225.983 136.954 225.63 137.046 225.322 137.231C225.018 137.411 224.78 137.655 224.608 137.963C224.436 138.267 224.347 138.605 224.343 138.979V140.524C224.343 140.992 224.429 141.396 224.602 141.737C224.778 142.077 225.026 142.34 225.347 142.524C225.667 142.709 226.046 142.801 226.485 142.801C226.777 142.801 227.043 142.76 227.285 142.678C227.528 142.596 227.735 142.473 227.907 142.309C228.08 142.145 228.211 141.944 228.301 141.706L230.726 141.866C230.603 142.449 230.351 142.957 229.969 143.392C229.592 143.823 229.103 144.16 228.504 144.402C227.909 144.64 227.222 144.759 226.442 144.759ZM236.074 134.165V131.968H246.427V134.165H242.568V144.574H239.933V134.165H236.074ZM248.083 144.574V135.119H250.706V144.574H248.083ZM249.401 133.901C249.011 133.901 248.676 133.771 248.397 133.513C248.122 133.25 247.985 132.936 247.985 132.571C247.985 132.21 248.122 131.9 248.397 131.642C248.676 131.379 249.011 131.248 249.401 131.248C249.79 131.248 250.123 131.379 250.398 131.642C250.677 131.9 250.816 132.21 250.816 132.571C250.816 132.936 250.677 133.25 250.398 133.513C250.123 133.771 249.79 133.901 249.401 133.901ZM252.806 144.574V135.119H255.305V136.788H255.416C255.613 136.234 255.941 135.797 256.401 135.476C256.861 135.156 257.41 134.996 258.051 134.996C258.699 134.996 259.251 135.158 259.706 135.483C260.162 135.803 260.466 136.238 260.617 136.788H260.716C260.909 136.246 261.258 135.813 261.762 135.489C262.271 135.16 262.872 134.996 263.566 134.996C264.448 134.996 265.164 135.277 265.714 135.84C266.268 136.398 266.545 137.19 266.545 138.216V144.574H263.929V138.733C263.929 138.207 263.79 137.813 263.51 137.551C263.231 137.288 262.883 137.157 262.464 137.157C261.988 137.157 261.617 137.309 261.35 137.612C261.083 137.912 260.95 138.308 260.95 138.8V144.574H258.408V138.677C258.408 138.214 258.274 137.844 258.007 137.569C257.745 137.294 257.398 137.157 256.967 137.157C256.676 137.157 256.413 137.231 256.179 137.378C255.949 137.522 255.767 137.725 255.631 137.988C255.496 138.246 255.428 138.55 255.428 138.899V144.574H252.806ZM272.925 144.759C271.953 144.759 271.116 144.562 270.414 144.168C269.716 143.77 269.179 143.208 268.801 142.481C268.424 141.751 268.235 140.887 268.235 139.89C268.235 138.917 268.424 138.064 268.801 137.329C269.179 136.595 269.71 136.022 270.395 135.612C271.085 135.201 271.893 134.996 272.821 134.996C273.444 134.996 274.025 135.097 274.563 135.298C275.104 135.495 275.576 135.792 275.978 136.19C276.385 136.589 276.701 137.089 276.926 137.692C277.152 138.292 277.265 138.993 277.265 139.798V140.518H269.281V138.893H274.797C274.797 138.515 274.714 138.181 274.55 137.889C274.386 137.598 274.158 137.37 273.867 137.206C273.58 137.038 273.245 136.954 272.864 136.954C272.466 136.954 272.113 137.046 271.805 137.231C271.501 137.411 271.263 137.655 271.091 137.963C270.919 138.267 270.83 138.605 270.826 138.979V140.524C270.826 140.992 270.912 141.396 271.085 141.737C271.261 142.077 271.51 142.34 271.83 142.524C272.15 142.709 272.529 142.801 272.968 142.801C273.26 142.801 273.526 142.76 273.769 142.678C274.011 142.596 274.218 142.473 274.39 142.309C274.563 142.145 274.694 141.944 274.784 141.706L277.209 141.866C277.086 142.449 276.834 142.957 276.452 143.392C276.075 143.823 275.586 144.16 274.987 144.402C274.392 144.64 273.705 144.759 272.925 144.759ZM280.509 144.734C280.103 144.734 279.754 144.591 279.462 144.303C279.175 144.012 279.032 143.663 279.032 143.257C279.032 142.855 279.175 142.51 279.462 142.223C279.754 141.936 280.103 141.792 280.509 141.792C280.903 141.792 281.247 141.936 281.543 142.223C281.838 142.51 281.986 142.855 281.986 143.257C281.986 143.528 281.916 143.776 281.777 144.002C281.641 144.223 281.463 144.402 281.241 144.537C281.02 144.669 280.776 144.734 280.509 144.734ZM284.188 144.574V131.968H292.683V134.165H286.854V137.169H292.246V139.367H286.854V142.377H292.707V144.574H284.188ZM299.837 135.119V137.089H294.002V135.119H299.837ZM295.337 144.574V134.436C295.337 133.751 295.471 133.182 295.737 132.731C296.008 132.28 296.378 131.941 296.845 131.715C297.313 131.49 297.845 131.377 298.44 131.377C298.842 131.377 299.209 131.408 299.542 131.469C299.878 131.531 300.128 131.586 300.293 131.635L299.825 133.605C299.722 133.572 299.595 133.542 299.443 133.513C299.295 133.484 299.144 133.47 298.988 133.47C298.602 133.47 298.333 133.56 298.181 133.741C298.029 133.917 297.953 134.165 297.953 134.485V144.574H295.337ZM306.523 135.119V137.089H300.688V135.119H306.523ZM302.024 144.574V134.436C302.024 133.751 302.157 133.182 302.424 132.731C302.695 132.28 303.064 131.941 303.532 131.715C304 131.49 304.531 131.377 305.126 131.377C305.528 131.377 305.896 131.408 306.228 131.469C306.564 131.531 306.815 131.586 306.979 131.635L306.511 133.605C306.409 133.572 306.281 133.542 306.129 133.513C305.982 133.484 305.83 133.47 305.674 133.47C305.288 133.47 305.019 133.56 304.868 133.741C304.716 133.917 304.64 134.165 304.64 134.485V144.574H302.024ZM312.059 144.759C311.103 144.759 310.276 144.556 309.578 144.149C308.885 143.739 308.349 143.169 307.971 142.438C307.594 141.704 307.405 140.852 307.405 139.884C307.405 138.907 307.594 138.054 307.971 137.323C308.349 136.589 308.885 136.018 309.578 135.612C310.276 135.201 311.103 134.996 312.059 134.996C313.015 134.996 313.84 135.201 314.533 135.612C315.231 136.018 315.768 136.589 316.146 137.323C316.523 138.054 316.712 138.907 316.712 139.884C316.712 140.852 316.523 141.704 316.146 142.438C315.768 143.169 315.231 143.739 314.533 144.149C313.84 144.556 313.015 144.759 312.059 144.759ZM312.071 142.728C312.506 142.728 312.869 142.604 313.161 142.358C313.452 142.108 313.671 141.767 313.819 141.336C313.971 140.906 314.047 140.415 314.047 139.865C314.047 139.315 313.971 138.825 313.819 138.394C313.671 137.963 313.452 137.623 313.161 137.372C312.869 137.122 312.506 136.997 312.071 136.997C311.632 136.997 311.263 137.122 310.963 137.372C310.668 137.623 310.444 137.963 310.292 138.394C310.144 138.825 310.07 139.315 310.07 139.865C310.07 140.415 310.144 140.906 310.292 141.336C310.444 141.767 310.668 142.108 310.963 142.358C311.263 142.604 311.632 142.728 312.071 142.728ZM318.417 144.574V135.119H320.96V136.769H321.058C321.23 136.182 321.52 135.739 321.926 135.439C322.332 135.136 322.8 134.984 323.329 134.984C323.461 134.984 323.602 134.992 323.754 135.009C323.906 135.025 324.039 135.048 324.154 135.076V137.403C324.031 137.366 323.861 137.333 323.643 137.305C323.426 137.276 323.227 137.262 323.046 137.262C322.661 137.262 322.316 137.346 322.012 137.514C321.713 137.678 321.475 137.908 321.298 138.203C321.126 138.499 321.04 138.839 321.04 139.225V144.574H318.417ZM331.013 135.119V137.089H325.319V135.119H331.013ZM326.612 132.854H329.234V141.669C329.234 141.911 329.271 142.1 329.345 142.235C329.419 142.366 329.521 142.459 329.653 142.512C329.788 142.565 329.944 142.592 330.12 142.592C330.244 142.592 330.367 142.582 330.49 142.561C330.613 142.537 330.707 142.518 330.773 142.506L331.185 144.457C331.054 144.498 330.869 144.545 330.631 144.599C330.393 144.656 330.104 144.691 329.763 144.703C329.131 144.728 328.577 144.644 328.101 144.451C327.63 144.258 327.262 143.959 327 143.552C326.737 143.146 326.608 142.633 326.612 142.014V132.854ZM334.254 144.734C333.848 144.734 333.499 144.591 333.207 144.303C332.92 144.012 332.777 143.663 332.777 143.257C332.777 142.855 332.92 142.51 333.207 142.223C333.499 141.936 333.848 141.792 334.254 141.792C334.648 141.792 334.992 141.936 335.288 142.223C335.583 142.51 335.731 142.855 335.731 143.257C335.731 143.528 335.661 143.776 335.522 144.002C335.386 144.223 335.208 144.402 334.986 144.537C334.765 144.669 334.521 144.734 334.254 144.734ZM337.933 131.968H341.22L344.692 140.438H344.84L348.311 131.968H351.598V144.574H349.013V136.369H348.908L345.646 144.513H343.886L340.623 136.338H340.519V144.574H337.933V131.968ZM358.017 144.759C357.061 144.759 356.234 144.556 355.536 144.149C354.843 143.739 354.307 143.169 353.93 142.438C353.552 141.704 353.364 140.852 353.364 139.884C353.364 138.907 353.552 138.054 353.93 137.323C354.307 136.589 354.843 136.018 355.536 135.612C356.234 135.201 357.061 134.996 358.017 134.996C358.973 134.996 359.798 135.201 360.492 135.612C361.189 136.018 361.727 136.589 362.104 137.323C362.482 138.054 362.671 138.907 362.671 139.884C362.671 140.852 362.482 141.704 362.104 142.438C361.727 143.169 361.189 143.739 360.492 144.149C359.798 144.556 358.973 144.759 358.017 144.759ZM358.029 142.728C358.464 142.728 358.828 142.604 359.119 142.358C359.41 142.108 359.63 141.767 359.778 141.336C359.929 140.906 360.005 140.415 360.005 139.865C360.005 139.315 359.929 138.825 359.778 138.394C359.63 137.963 359.41 137.623 359.119 137.372C358.828 137.122 358.464 136.997 358.029 136.997C357.59 136.997 357.221 137.122 356.921 137.372C356.626 137.623 356.402 137.963 356.25 138.394C356.103 138.825 356.029 139.315 356.029 139.865C356.029 140.415 356.103 140.906 356.25 141.336C356.402 141.767 356.626 142.108 356.921 142.358C357.221 142.604 357.59 142.728 358.029 142.728ZM366.998 139.108V144.574H364.376V135.119H366.875V136.788H366.986C367.195 136.238 367.546 135.803 368.038 135.483C368.531 135.158 369.128 134.996 369.829 134.996C370.486 134.996 371.058 135.14 371.547 135.427C372.035 135.714 372.415 136.125 372.686 136.658C372.956 137.188 373.092 137.82 373.092 138.554V144.574H370.47V139.022C370.474 138.443 370.326 137.992 370.026 137.668C369.727 137.339 369.314 137.175 368.789 137.175C368.436 137.175 368.124 137.251 367.853 137.403C367.587 137.555 367.377 137.777 367.226 138.068C367.078 138.355 367.002 138.702 366.998 139.108ZM379.467 144.759C378.495 144.759 377.658 144.562 376.956 144.168C376.258 143.77 375.721 143.208 375.343 142.481C374.966 141.751 374.777 140.887 374.777 139.89C374.777 138.917 374.966 138.064 375.343 137.329C375.721 136.595 376.252 136.022 376.937 135.612C377.627 135.201 378.435 134.996 379.363 134.996C379.986 134.996 380.567 135.097 381.105 135.298C381.646 135.495 382.118 135.792 382.52 136.19C382.927 136.589 383.243 137.089 383.468 137.692C383.694 138.292 383.807 138.993 383.807 139.798V140.518H375.823V138.893H381.339C381.339 138.515 381.257 138.181 381.092 137.889C380.928 137.598 380.7 137.37 380.409 137.206C380.122 137.038 379.787 136.954 379.406 136.954C379.008 136.954 378.655 137.046 378.347 137.231C378.043 137.411 377.805 137.655 377.633 137.963C377.461 138.267 377.372 138.605 377.368 138.979V140.524C377.368 140.992 377.454 141.396 377.627 141.737C377.803 142.077 378.052 142.34 378.372 142.524C378.692 142.709 379.071 142.801 379.51 142.801C379.802 142.801 380.069 142.76 380.311 142.678C380.553 142.596 380.76 142.473 380.932 142.309C381.105 142.145 381.236 141.944 381.326 141.706L383.752 141.866C383.628 142.449 383.376 142.957 382.994 143.392C382.617 143.823 382.129 144.16 381.529 144.402C380.934 144.64 380.247 144.759 379.467 144.759ZM386.883 148.12C386.551 148.12 386.239 148.093 385.948 148.04C385.66 147.991 385.422 147.927 385.233 147.849L385.824 145.891C386.132 145.986 386.409 146.037 386.655 146.045C386.906 146.054 387.121 145.996 387.302 145.873C387.486 145.75 387.636 145.541 387.751 145.245L387.905 144.845L384.513 135.119H387.271L389.228 142.063H389.327L391.303 135.119H394.079L390.404 145.596C390.228 146.105 389.988 146.548 389.684 146.926C389.384 147.307 389.005 147.601 388.545 147.806C388.086 148.015 387.532 148.12 386.883 148.12Z" fill="#EED24C"/>
<path d="M164.979 82.4882C164.979 128.047 128.047 164.978 82.4893 164.978C36.932 164.978 0 128.047 0 82.4882C0 36.9309 36.932 0.000213623 82.4893 0.000213623C128.047 0.000213623 164.979 36.9309 164.979 82.4882Z" fill="#EED24C" fill-opacity="0.1"/>
<path d="M115.088 69.9191L112.807 77.4151C105.636 66.9871 111.34 45.1498 118.509 43.0311C124.051 41.2378 120.14 52.3204 115.088 69.9191ZM85.1213 55.3685C89.812 54.1431 85.8 63.7271 80.384 79.0271L77.9693 85.5351C72.8107 75.7951 79.0667 56.7765 85.1213 55.3685ZM144.584 70.5711C141.976 75.4591 136.273 79.8605 130.08 81.8151C132.199 77.9031 133.828 73.8311 135.132 69.9191C141.324 49.7124 133.013 33.5791 120.303 37.4911C103.192 42.7058 97.6507 72.6898 110.525 83.7711C104.496 100.882 96.6733 116.688 88.1987 116.688C84.2507 116.688 78.6667 109.047 79.964 106.32C80.136 106.152 80.3187 105.996 80.488 105.826C80.6213 105.691 80.7507 105.556 80.8827 105.42C80.8867 105.418 80.8907 105.416 80.8933 105.414C80.8933 105.412 80.8933 105.411 80.8933 105.41C85.5107 100.671 88.9453 95.4471 89.54 94.4778C91.028 92.0618 91.7853 90.8151 91.8787 90.5871C93.9027 87.2524 95.536 83.7418 96.8893 80.3538C103.431 62.8138 97.74 47.9324 86.9933 50.5645C72.532 54.0645 65.828 80.3338 75.6373 91.0285C74.2533 95.0338 72.1667 99.9111 68.9733 105.09C67.9467 106.752 66.8453 108.362 65.728 109.962C64.588 111.594 63.152 113.086 61.872 114.616C61.8293 114.668 61.7893 114.723 61.7493 114.778C59.4627 115.995 57.3627 116.688 55.608 116.688C49.4147 116.688 52.5107 104.303 67.0147 68.1258C75 48.2458 67.504 33.4165 53.4893 36.5125C53.3253 36.5125 55.1187 47.9191 46.808 68.1258C46.112 69.8404 45.4773 71.4991 44.876 73.1258C37.0333 88.3791 32.8813 96.9364 21.46 104.898C20.5347 105.519 25.5387 123.698 32.4053 118.427C35.196 116.28 37.4813 113.443 39.4387 110.111C41.3067 117.359 45.932 120.926 52.0227 120.926C56.588 120.926 61.548 119.23 66.4427 116.258C67.912 115.44 69.3507 114.571 70.7547 113.648C73.848 118.083 78.3627 120.926 84.6147 120.926C98.3027 120.926 116.555 104.63 127.636 86.3791C135.783 83.9338 143.443 78.2298 146.049 73.9938C148.005 70.7338 148.332 68.2884 148.332 67.4751C148.332 64.3791 147.517 64.8671 144.584 70.5711Z" fill="#EED24C"/>
<path d="M90.2925 43.6768C95.9699 43.6768 100.571 39.0754 100.571 33.3981C100.571 27.7208 95.9699 23.1194 90.2925 23.1194C84.6165 23.1194 80.0139 27.7208 80.0139 33.3981C80.0139 39.0754 84.6165 43.6768 90.2925 43.6768Z" fill="#EED24C"/>
<path d="M85.5067 135.552C83.884 135.552 82.5653 134.232 82.5653 132.611C82.5653 130.988 83.884 129.669 85.5067 129.669C87.128 129.669 88.448 130.988 88.448 132.611C88.448 134.232 87.128 135.552 85.5067 135.552ZM85.5067 123.361C80.4067 123.361 76.2587 127.511 76.2587 132.611C76.2587 137.709 80.4067 141.857 85.5067 141.857C90.6053 141.857 94.7547 137.709 94.7547 132.611C94.7547 127.511 90.6053 123.361 85.5067 123.361Z" fill="#EED24C"/>
<path d="M50.5399 135.552C48.9185 135.552 47.5985 134.232 47.5985 132.611C47.5985 130.988 48.9185 129.669 50.5399 129.669C52.1625 129.669 53.4812 130.988 53.4812 132.611C53.4812 134.232 52.1625 135.552 50.5399 135.552ZM50.5399 123.361C45.4412 123.361 41.2919 127.511 41.2919 132.611C41.2919 137.709 45.4412 141.857 50.5399 141.857C55.6399 141.857 59.7879 137.709 59.7879 132.611C59.7879 127.511 55.6399 123.361 50.5399 123.361Z" fill="#EED24C"/>
<path d="M432.867 108.51C432.867 108.874 432.777 109.269 432.597 109.694C432.417 110.118 432.135 110.536 431.749 110.944C431.364 111.353 430.872 111.685 430.273 111.94C429.673 112.196 428.976 112.322 428.179 112.322C427.575 112.322 427.025 112.265 426.531 112.15C426.036 112.037 425.587 111.858 425.183 111.616C424.78 111.373 424.408 111.054 424.069 110.658C423.768 110.3 423.509 109.897 423.296 109.452C423.083 109.006 422.923 108.532 422.816 108.026C422.709 107.521 422.656 106.984 422.656 106.417C422.656 105.494 422.789 104.669 423.059 103.94C423.327 103.21 423.711 102.588 424.211 102.069C424.711 101.55 425.296 101.156 425.968 100.885C426.64 100.614 427.356 100.48 428.116 100.48C429.044 100.48 429.869 100.664 430.593 101.034C431.317 101.404 431.872 101.861 432.257 102.405C432.643 102.949 432.836 103.464 432.836 103.948C432.836 104.213 432.741 104.448 432.555 104.65C432.367 104.854 432.14 104.956 431.875 104.956C431.577 104.956 431.355 104.885 431.207 104.745C431.059 104.604 430.893 104.362 430.711 104.018C430.408 103.45 430.053 103.026 429.644 102.745C429.235 102.464 428.731 102.322 428.132 102.322C427.179 102.322 426.42 102.685 425.855 103.409C425.289 104.133 425.007 105.161 425.007 106.494C425.007 107.385 425.132 108.126 425.383 108.717C425.632 109.309 425.987 109.75 426.445 110.041C426.903 110.333 427.44 110.48 428.055 110.48C428.721 110.48 429.284 110.314 429.745 109.982C430.207 109.652 430.555 109.166 430.788 108.526C430.888 108.224 431.009 107.978 431.156 107.788C431.301 107.597 431.536 107.502 431.859 107.502C432.135 107.502 432.372 107.598 432.569 107.792C432.768 107.984 432.867 108.224 432.867 108.51Z" fill="#EED24C"/>
<path d="M443.289 106.37C443.289 105.531 443.153 104.805 442.882 104.19C442.611 103.575 442.225 103.111 441.722 102.795C441.219 102.481 440.643 102.323 439.991 102.323C439.529 102.323 439.099 102.41 438.706 102.585C438.314 102.759 437.975 103.013 437.691 103.346C437.407 103.679 437.183 104.106 437.019 104.623C436.855 105.142 436.773 105.725 436.773 106.37C436.773 107.021 436.855 107.61 437.019 108.135C437.183 108.662 437.415 109.098 437.714 109.445C438.014 109.79 438.358 110.05 438.746 110.222C439.134 110.394 439.559 110.479 440.023 110.479C440.617 110.479 441.162 110.331 441.659 110.034C442.157 109.737 442.553 109.279 442.847 108.659C443.142 108.039 443.289 107.277 443.289 106.37ZM439.991 100.479C441.179 100.479 442.199 100.721 443.05 101.202C443.902 101.683 444.546 102.369 444.983 103.257C445.422 104.145 445.641 105.187 445.641 106.386C445.641 107.271 445.521 108.075 445.281 108.799C445.041 109.523 444.682 110.151 444.203 110.682C443.723 111.214 443.135 111.621 442.437 111.901C441.739 112.182 440.939 112.323 440.038 112.323C439.143 112.323 438.341 112.178 437.633 111.89C436.925 111.601 436.333 111.193 435.859 110.667C435.385 110.141 435.027 109.509 434.785 108.769C434.542 108.029 434.422 107.23 434.422 106.37C434.422 105.49 434.547 104.682 434.801 103.949C435.053 103.214 435.419 102.589 435.898 102.073C436.377 101.558 436.961 101.163 437.649 100.89C438.335 100.617 439.117 100.479 439.991 100.479Z" fill="#EED24C"/>
<path d="M420.38 111.655C420.057 111.655 419.778 111.551 419.544 111.343C419.309 111.134 419.192 110.843 419.192 110.467C419.192 110.15 419.304 109.877 419.528 109.647C419.752 109.418 420.028 109.303 420.356 109.303C420.685 109.303 420.964 109.417 421.196 109.643C421.428 109.87 421.544 110.145 421.544 110.467C421.544 110.838 421.428 111.127 421.196 111.339C420.964 111.55 420.692 111.655 420.38 111.655Z" fill="#EED24C"/>
</g>
<defs>
<clipPath id="clip0_697_86852">
<rect width="458.57" height="164.977" fill="white"/>
</clipPath>
</defs>
</svg>
