<svg width="24" height="25" viewBox="0 0 24 25" fill="none" xmlns="http://www.w3.org/2000/svg">
<g id="icon / jam-icons / outline &#38; logos / menu">
<path id="Vector" d="M6 7.5H11C11.2652 7.5 11.5196 7.60536 11.7071 7.79289C11.8946 7.98043 12 8.23478 12 8.5C12 8.76522 11.8946 9.01957 11.7071 9.20711C11.5196 9.39464 11.2652 9.5 11 9.5H6C5.73478 9.5 5.48043 9.39464 5.29289 9.20711C5.10536 9.01957 5 8.76522 5 8.5C5 8.23478 5.10536 7.98043 5.29289 7.79289C5.48043 7.60536 5.73478 7.5 6 7.5V7.5ZM13 15.5H18C18.2652 15.5 18.5196 15.6054 18.7071 15.7929C18.8946 15.9804 19 16.2348 19 16.5C19 16.7652 18.8946 17.0196 18.7071 17.2071C18.5196 17.3946 18.2652 17.5 18 17.5H13C12.7348 17.5 12.4804 17.3946 12.2929 17.2071C12.1054 17.0196 12 16.7652 12 16.5C12 16.2348 12.1054 15.9804 12.2929 15.7929C12.4804 15.6054 12.7348 15.5 13 15.5ZM6 11.5H18C18.2652 11.5 18.5196 11.6054 18.7071 11.7929C18.8946 11.9804 19 12.2348 19 12.5C19 12.7652 18.8946 13.0196 18.7071 13.2071C18.5196 13.3946 18.2652 13.5 18 13.5H6C5.73478 13.5 5.48043 13.3946 5.29289 13.2071C5.10536 13.0196 5 12.7652 5 12.5C5 12.2348 5.10536 11.9804 5.29289 11.7929C5.48043 11.6054 5.73478 11.5 6 11.5Z" fill="#21272A"/>
</g>
</svg>
