<svg width="28" height="21" viewBox="0 0 28 21" fill="none" xmlns="http://www.w3.org/2000/svg">
<path id="Path 173" opacity="0.4" fill-rule="evenodd" clip-rule="evenodd" d="M17.233 20.7235C15.7788 17.9119 15.0516 14.8579 15.0516 11.5615C15.0516 8.21668 15.9363 5.45355 17.7057 3.27213C19.4751 1.09071 22.2261 0 25.9587 0V4.58098C24.6499 4.58098 23.6925 4.87184 23.0865 5.45355C22.4806 6.03526 22.1776 7.15021 22.1776 8.79839V9.52553H27.4857V20.7235H17.233ZM2.18141 20.7235C0.727138 17.9119 0 14.8579 0 11.5615C0 8.21668 0.884685 5.45355 2.65405 3.27213C4.42342 1.09071 7.17443 0 10.9071 0V4.58098C9.59822 4.58098 8.64082 4.87184 8.03487 5.45355C7.42893 6.03526 7.12595 7.15021 7.12595 8.79839V9.52553H12.4341V20.7235H2.18141Z" fill="url(#paint0_linear_668_31714)"/>
<defs>
<linearGradient id="paint0_linear_668_31714" x1="3.75789" y1="-0.0537487" x2="24.3058" y2="20.4941" gradientUnits="userSpaceOnUse">
<stop stop-color="#6A247D"/>
<stop offset="1" stop-color="#DDFFFF"/>
</linearGradient>
</defs>
</svg>
