<svg width="26" height="20" viewBox="0 0 26 20" fill="none" xmlns="http://www.w3.org/2000/svg">
<path id="Path 174" opacity="0.4" fill-rule="evenodd" clip-rule="evenodd" d="M9.60879 -0.000370026C10.9717 2.6347 11.6532 5.49692 11.6532 8.58631C11.6532 11.7211 10.8241 14.3108 9.16582 16.3552C7.50755 18.3997 4.92929 19.4219 1.43102 19.4219V15.1285C2.65768 15.1285 3.55497 14.8559 4.12287 14.3108C4.69077 13.7656 4.97472 12.7206 4.97472 11.1759V10.4945H-9.15527e-05V-0.000370026H9.60879ZM23.7153 -0.000370026C25.0783 2.6347 25.7598 5.49692 25.7598 8.58631C25.7598 11.7211 24.9306 14.3108 23.2724 16.3552C21.6141 18.3997 19.0358 19.4219 15.5376 19.4219V15.1285C16.7642 15.1285 17.6615 14.8559 18.2294 14.3108C18.7973 13.7656 19.0813 12.7206 19.0813 11.1759V10.4945H14.1064V-0.000370026H23.7153Z" fill="url(#paint0_linear_668_31717)"/>
<defs>
<linearGradient id="paint0_linear_668_31717" x1="22.2378" y1="19.4722" x2="2.98009" y2="0.214588" gradientUnits="userSpaceOnUse">
<stop stop-color="#6A247D"/>
<stop offset="1" stop-color="#DDFFFF"/>
</linearGradient>
</defs>
</svg>
