<svg width="18" height="18" viewBox="0 0 18 18" fill="none" xmlns="http://www.w3.org/2000/svg">
<g id="icon / jam-icons / outline &#38; logos / twitter">
<path id="Vector" d="M16.5 4.43025C15.9378 4.67578 15.3423 4.83678 14.733 4.908C15.3726 4.53243 15.8535 3.93683 16.086 3.2325C15.48 3.58525 14.8191 3.8337 14.1307 3.9675C13.8409 3.66391 13.4923 3.42254 13.1061 3.25813C12.7199 3.09373 12.3042 3.00972 11.8845 3.01125C10.185 3.01125 8.80725 4.36875 8.80725 6.04125C8.80725 6.27825 8.83425 6.51 8.88675 6.73125C7.66768 6.67327 6.47409 6.36181 5.38213 5.81673C4.29016 5.27165 3.32382 4.50494 2.54475 3.5655C2.27162 4.0263 2.12806 4.55234 2.12925 5.088C2.12977 5.58898 2.25512 6.08192 2.49397 6.5223C2.73281 6.96267 3.07763 7.33658 3.49725 7.61025C3.00936 7.5945 2.53202 7.46424 2.10375 7.23V7.2675C2.10375 8.736 3.165 9.96075 4.57125 10.2398C4.30696 10.3099 4.03469 10.3454 3.76125 10.3455C3.5625 10.3455 3.36975 10.3268 3.1815 10.2893C3.38256 10.8952 3.76733 11.4235 4.28236 11.8008C4.7974 12.178 5.41713 12.3855 6.0555 12.3945C4.96055 13.2379 3.61636 13.6935 2.23425 13.6898C1.98525 13.6898 1.74075 13.6748 1.5 13.6478C2.91094 14.5408 4.54694 15.0137 6.21675 15.0113C11.877 15.0113 14.9715 10.3935 14.9715 6.38925L14.961 5.997C15.5646 5.57225 16.0861 5.04139 16.5 4.43025Z" fill="white"/>
</g>
</svg>
