<svg width="16" height="16" viewBox="0 0 16 16" fill="none" xmlns="http://www.w3.org/2000/svg">
<g id="svgexport-6 (26) 1" clip-path="url(#clip0_387_16995)">
<g id="Group">
<path id="Vector" d="M14.9284 9C14.8505 9.54808 14.7071 10.0848 14.5013 10.5988L15.4281 11.1341L14.4281 12.8659L13.5 12.3303C13.1574 12.7648 12.7648 13.1574 12.3303 13.5L12.8659 14.4281L11.1341 15.4281L10.5988 14.5013C10.0848 14.7071 9.54808 14.8505 9 14.9284V16H7V14.9284C6.45192 14.8505 5.91517 14.7071 5.40125 14.5013L4.86594 15.4281L3.13406 14.4281L3.66969 13.5C3.23521 13.1574 2.84261 12.7648 2.5 12.3303L1.57187 12.8659L0.571875 11.1341L1.49875 10.5988C1.29294 10.0848 1.14952 9.54808 1.07156 9H0V7H1.07156C1.15094 6.44312 1.29594 5.9075 1.49875 5.40125L0.571875 4.86594L1.57187 3.13406L2.5 3.66969C2.84261 3.23521 3.23521 2.84261 3.66969 2.5L3.13406 1.57187L4.86594 0.571875L5.40125 1.49875C5.9075 1.29594 6.44312 1.15094 7 1.07156V0H9V1.07156C9.55688 1.15094 10.0925 1.29594 10.5988 1.49875L11.1341 0.571875L12.8659 1.57187L12.3303 2.5C12.7648 2.84261 13.1574 3.23521 13.5 3.66969L14.4281 3.13406L15.4281 4.86594L14.5013 5.40125C14.7041 5.9075 14.8491 6.44312 14.9284 7H16V9H14.9284Z" fill="#4D5E80"/>
<path id="Vector_2" d="M14.9284 9C14.8505 9.54808 14.7071 10.0848 14.5013 10.5988L15.4281 11.1341L14.4281 12.8659L13.5 12.3303C13.1574 12.7648 12.7648 13.1574 12.3303 13.5L12.8659 14.4281L11.1341 15.4281L10.5988 14.5013C10.0848 14.7071 9.54808 14.8505 9 14.9284V16H8V0H9V1.07156C9.55687 1.15094 10.0925 1.29594 10.5988 1.49875L11.1341 0.571875L12.8659 1.57187L12.3303 2.5C12.7648 2.84261 13.1574 3.23521 13.5 3.66969L14.4281 3.13406L15.4281 4.86594L14.5013 5.40125C14.7041 5.9075 14.8491 6.44312 14.9284 7H16V9H14.9284Z" fill="#3D4566"/>
<path id="Vector_3" d="M8 12.7067C10.5995 12.7067 12.7069 10.5994 12.7069 7.99984C12.7069 5.40031 10.5995 3.29297 8 3.29297C5.40046 3.29297 3.29312 5.40031 3.29312 7.99984C3.29312 10.5994 5.40046 12.7067 8 12.7067Z" fill="#FFBE40"/>
<path id="Vector_4" d="M12.7069 7.99984C12.7069 10.5995 10.5997 12.7067 8 12.7067V3.29297C10.5997 3.29297 12.7069 5.40016 12.7069 7.99984Z" fill="#FC963A"/>
<path id="Vector_5" d="M8 2.82422C5.14593 2.82422 2.82437 5.14578 2.82437 7.99984C2.82437 10.8539 5.14593 13.1755 8 13.1755C10.8541 13.1755 13.1756 10.8539 13.1756 7.99984C13.1756 5.14578 10.8541 2.82422 8 2.82422ZM8 12.238C5.66312 12.238 3.76187 10.3367 3.76187 7.99984C3.76187 5.66297 5.66312 3.76172 8 3.76172C10.3369 3.76172 12.2381 5.66297 12.2381 7.99984C12.2381 10.3367 10.3369 12.238 8 12.238Z" fill="#FFDF40"/>
<path id="Vector_6" d="M13.1756 7.99984C13.1756 10.8539 10.8541 13.1755 8 13.1755V12.238C10.3369 12.238 12.2381 10.3367 12.2381 7.99984C12.2381 5.66297 10.3369 3.76172 8 3.76172V2.82422C10.8541 2.82422 13.1756 5.14578 13.1756 7.99984Z" fill="#FFBE40"/>
<path id="Vector_7" d="M9.6672 8.94059C9.6672 9.6459 9.14626 10.2318 8.46876 10.3337V10.8375H7.53126V10.3346C6.85876 10.2368 6.34032 9.65652 6.34032 8.95715H7.27782C7.27782 9.20777 7.48189 9.41184 7.73251 9.41184H8.25814C8.51814 9.41184 8.7297 9.20059 8.7297 8.94059C8.7297 8.68059 8.51814 8.46902 8.25814 8.46902H7.74189C6.96501 8.46902 6.33282 7.83684 6.33282 7.05996C6.33282 6.35465 6.85376 5.76871 7.53126 5.66684V5.16309H8.46876V5.66871C9.14064 5.7759 9.65595 6.35902 9.65595 7.06059H8.71845C8.71845 6.80027 8.50657 6.58871 8.24626 6.58871H7.74189C7.48189 6.58871 7.27032 6.79996 7.27032 7.05996C7.27032 7.31996 7.48189 7.53152 7.74189 7.53152H8.25814C9.03501 7.53152 9.6672 8.16371 9.6672 8.94059Z" fill="#FFDF40"/>
<g id="Group_2">
<path id="Vector_8" d="M9.66719 8.94059C9.66719 9.6459 9.14625 10.2318 8.46875 10.3337V10.8375H8V9.41184H8.25813C8.51813 9.41184 8.72969 9.20059 8.72969 8.94059C8.72969 8.68059 8.51813 8.46902 8.25813 8.46902H8V7.53152H8.25813C9.035 7.53152 9.66719 8.16371 9.66719 8.94059ZM8.24625 6.58871H8V5.16309H8.46875V5.66871C9.14062 5.7759 9.65594 6.35902 9.65594 7.06059H8.71844C8.71844 6.80027 8.50656 6.58871 8.24625 6.58871Z" fill="#FFBE40"/>
</g>
</g>
</g>
<defs>
<clipPath id="clip0_387_16995">
<rect width="16" height="16" fill="white"/>
</clipPath>
</defs>
</svg>
