<svg width="16" height="17" viewBox="0 0 16 17" fill="none" xmlns="http://www.w3.org/2000/svg">
<g id="svgexport-6 (25) 2" clip-path="url(#clip0_387_16982)">
<g id="Group">
<path id="Vector" d="M2.34018 11.916V16.9681H13.5663V11.916H2.34018Z" fill="#4D5E80"/>
<path id="Vector_2" d="M7.95322 11.916H13.5663V16.9681H7.95322V11.916Z" fill="#3D4566"/>
<path id="Vector_3" d="M7.48547 12.4951H8.42098V13.9861H7.48547V12.4951Z" fill="#FFDF40"/>
<path id="Vector_4" d="M7.95322 12.4951H8.42097V13.9861H7.95322V12.4951Z" fill="#FFBE40"/>
<path id="Vector_5" d="M10.292 8.51912H9.35648V7.35388C9.04317 7.22221 8.49035 7.02816 7.95321 7.02816C7.4162 7.02816 6.86347 7.22212 6.54995 7.35392V8.51912H5.61444V6.72099L5.87302 6.58362C5.91524 6.56119 6.91916 6.03418 7.95321 6.03418C8.98726 6.03418 9.99119 6.56119 10.0334 6.58362L10.292 6.72099V8.51912Z" fill="#4D5E80"/>
<path id="Vector_6" d="M9.35648 7.35388V8.51912H10.292V6.72099L10.0334 6.58362C9.99119 6.56119 8.98727 6.03418 7.95322 6.03418V7.02816C8.49035 7.02816 9.04318 7.22221 9.35648 7.35388Z" fill="#3D4566"/>
<path id="Vector_7" d="M13.5663 8.02246V11.9162L7.95323 13.0006L2.34018 11.9162V8.02246H13.5663Z" fill="#3D4566"/>
<path id="Vector_8" d="M13.5663 8.02246H7.95322V13.0006L13.5663 11.9162V8.02246Z" fill="#2E2E4D"/>
<g id="Group_2">
<path id="Vector_9" d="M4.08602 7.12376L2.52531 6.6046L0.964603 7.12376L0.947015 5.38625L0 3.96957L1.54986 3.41486L2.52531 2.02018L3.50077 3.41486L5.05062 3.96957L4.10364 5.38625L4.08602 7.12376ZM6.39252 5.1358L6.37493 3.3983L5.42794 1.98162L6.9778 1.42691L7.95326 0.0322266L8.92868 1.42691L10.4785 1.98162L9.53155 3.3983L9.514 5.13584L7.95326 4.61668L6.39252 5.1358ZM15.0354 7.12376L13.4747 6.6046L11.9139 7.12376L11.8964 5.38622L10.9494 3.96954L12.4993 3.41483L13.4747 2.02015L14.4501 3.41483L16 3.96954L15.053 5.38622L15.0354 7.12376Z" fill="#FFDF40"/>
</g>
<path id="Vector_10" d="M9.51395 5.1358L9.53151 3.39827L10.4785 1.98162L8.92864 1.42691L7.95321 0.0322266V4.61665L9.51395 5.1358ZM15.0354 7.12376L15.053 5.38625L16 3.96957L14.4501 3.41486L13.4747 2.02018V6.6046L15.0354 7.12376ZM4.08601 7.12376L4.1036 5.38625L5.05058 3.96957L3.50072 3.41486L2.52527 2.02018V6.6046L4.08601 7.12376Z" fill="#FFBE40"/>
</g>
</g>
<defs>
<clipPath id="clip0_387_16982">
<rect width="16" height="17" fill="white"/>
</clipPath>
</defs>
</svg>
