<svg width="18" height="18" viewBox="0 0 18 18" fill="none" xmlns="http://www.w3.org/2000/svg">
<g id="icon / jam-icons / outline &#38; logos / youtube">
<path id="Vector" d="M13.359 3.76271H4.60875C2.89125 3.76271 1.5 5.13896 1.5 6.83696V11.163C1.5 12.861 2.892 14.238 4.60875 14.238H13.359C15.0765 14.238 16.4678 12.861 16.4678 11.163V6.83696C16.4678 5.13896 15.0758 3.76196 13.359 3.76196V3.76271ZM11.2568 9.20996L7.164 11.1412C7.13904 11.1532 7.11144 11.1587 7.08377 11.1572C7.05611 11.1557 7.02928 11.1472 7.00577 11.1326C6.98227 11.1179 6.96286 11.0975 6.94935 11.0733C6.93584 11.0491 6.92867 11.0219 6.9285 10.9942V7.01246C6.929 6.98462 6.93654 6.95735 6.95042 6.93321C6.96429 6.90906 6.98406 6.88882 7.00786 6.87437C7.03167 6.85992 7.05875 6.85173 7.08658 6.85057C7.1144 6.8494 7.14207 6.8553 7.167 6.86771L11.2605 8.91896C11.2878 8.93256 11.3106 8.95357 11.3265 8.97958C11.3424 9.00559 11.3506 9.03555 11.3502 9.06601C11.3498 9.09648 11.3408 9.12622 11.3243 9.15181C11.3078 9.1774 11.2844 9.19782 11.2568 9.21071V9.20996Z" fill="white"/>
</g>
</svg>
